<?xml version="1.0" encoding="UTF-8" standalone="no"?>
<!-- Generator: Adobe Illustrator 18.1.1, SVG Export Plug-In . SVG Version: 6.00 Build 0)  -->

<svg
   xmlns:dc="http://purl.org/dc/elements/1.1/"
   xmlns:cc="http://creativecommons.org/ns#"
   xmlns:rdf="http://www.w3.org/1999/02/22-rdf-syntax-ns#"
   xmlns:svg="http://www.w3.org/2000/svg"
   xmlns="http://www.w3.org/2000/svg"
   xmlns:sodipodi="http://sodipodi.sourceforge.net/DTD/sodipodi-0.dtd"
   xmlns:inkscape="http://www.inkscape.org/namespaces/inkscape"
   version="1.1"
   id="Capa_1"
   x="0px"
   y="0px"
   viewBox="0 0 16 16"
   xml:space="preserve"
   inkscape:version="0.91 r13725"
   sodipodi:docname="arrow_down.svg"
   width="16"
   height="16"><metadata
   id="metadata41"><rdf:RDF><cc:Work
       rdf:about=""><dc:format>image/svg+xml</dc:format><dc:type
         rdf:resource="http://purl.org/dc/dcmitype/StillImage" /><dc:title></dc:title></cc:Work></rdf:RDF></metadata><defs
   id="defs39" /><sodipodi:namedview
   pagecolor="#ffffff"
   bordercolor="#666666"
   borderopacity="1"
   objecttolerance="10"
   gridtolerance="10"
   guidetolerance="10"
   inkscape:pageopacity="0"
   inkscape:pageshadow="2"
   inkscape:window-width="1920"
   inkscape:window-height="1026"
   id="namedview37"
   showgrid="false"
   inkscape:zoom="2"
   inkscape:cx="96.287673"
   inkscape:cy="8.936366"
   inkscape:window-x="-4"
   inkscape:window-y="-4"
   inkscape:window-maximized="1"
   inkscape:current-layer="g3" />
<g
   id="g3"
   transform="translate(0,-6.0620005)">
	<path
   style="fill:#010002"
   d="M 15.559168,10.041621 15.024669,9.5046329 c -0.585992,-0.5901763 -1.547656,-0.5901763 -2.134373,0 L 8.000022,14.41694 3.1104733,9.5046329 c -0.5867168,-0.5901763 -1.5483812,-0.5901763 -2.13509807,0 L 0.44087548,10.041621 c -0.58816731,0.589447 -0.58816731,1.555588 0,2.145764 l 6.40746992,6.437294 c 0.3154782,0.316946 0.7382914,0.457569 1.1509513,0.434982 0.4141104,0.02259 0.8369237,-0.118036 1.1516766,-0.434982 l 6.4081947,-6.437294 c 0.587443,-0.589448 0.587443,-1.555588 0,-2.145764 z"
   id="path5"
   inkscape:connector-curvature="0" />
</g>
<g
   id="g7"
   transform="translate(0,-6.0620005)">
</g>
<g
   id="g9"
   transform="translate(0,-6.0620005)">
</g>
<g
   id="g11"
   transform="translate(0,-6.0620005)">
</g>
<g
   id="g13"
   transform="translate(0,-6.0620005)">
</g>
<g
   id="g15"
   transform="translate(0,-6.0620005)">
</g>
<g
   id="g17"
   transform="translate(0,-6.0620005)">
</g>
<g
   id="g19"
   transform="translate(0,-6.0620005)">
</g>
<g
   id="g21"
   transform="translate(0,-6.0620005)">
</g>
<g
   id="g23"
   transform="translate(0,-6.0620005)">
</g>
<g
   id="g25"
   transform="translate(0,-6.0620005)">
</g>
<g
   id="g27"
   transform="translate(0,-6.0620005)">
</g>
<g
   id="g29"
   transform="translate(0,-6.0620005)">
</g>
<g
   id="g31"
   transform="translate(0,-6.0620005)">
</g>
<g
   id="g33"
   transform="translate(0,-6.0620005)">
</g>
<g
   id="g35"
   transform="translate(0,-6.0620005)">
</g>
</svg>