<?xml version="1.0" encoding="UTF-8" standalone="no"?>
<!-- Generator: Adobe Illustrator 16.0.0, SVG Export Plug-In . SVG Version: 6.00 Build 0)  -->

<svg
   xmlns:dc="http://purl.org/dc/elements/1.1/"
   xmlns:cc="http://creativecommons.org/ns#"
   xmlns:rdf="http://www.w3.org/1999/02/22-rdf-syntax-ns#"
   xmlns:svg="http://www.w3.org/2000/svg"
   xmlns="http://www.w3.org/2000/svg"
   xmlns:sodipodi="http://sodipodi.sourceforge.net/DTD/sodipodi-0.dtd"
   xmlns:inkscape="http://www.inkscape.org/namespaces/inkscape"
   version="1.1"
   id="Capa_1"
   x="0px"
   y="0px"
   width="480.224px"
   height="480.225px"
   viewBox="0 0 480.224 480.225"
   style="enable-background:new 0 0 480.224 480.225;"
   xml:space="preserve"
   inkscape:version="0.91 r13725"
   sodipodi:docname="artefact2.svg"><metadata
   id="metadata45"><rdf:RDF><cc:Work
       rdf:about=""><dc:format>image/svg+xml</dc:format><dc:type
         rdf:resource="http://purl.org/dc/dcmitype/StillImage" /><dc:title></dc:title></cc:Work></rdf:RDF></metadata><defs
   id="defs43" /><sodipodi:namedview
   pagecolor="#ffffff"
   bordercolor="#666666"
   borderopacity="1"
   objecttolerance="10"
   gridtolerance="10"
   guidetolerance="10"
   inkscape:pageopacity="0"
   inkscape:pageshadow="2"
   inkscape:window-width="1920"
   inkscape:window-height="1026"
   id="namedview41"
   showgrid="false"
   inkscape:zoom="0.4914363"
   inkscape:cx="240.112"
   inkscape:cy="238.07765"
   inkscape:window-x="-4"
   inkscape:window-y="-4"
   inkscape:window-maximized="1"
   inkscape:current-layer="Capa_1" />
<g
   id="g3"
   style="fill:#007aff">
	<g
   id="g5">
		<path
   d="M 420.8,211.761 130.6,211.71 118.436,169.833 c -1.813,-6.242 -6.839,-11.175 -13.116,-12.873 L 62.75,145.447 c -1.604,-0.432 -3.253,-0.652 -4.902,-0.652 -8.448,0 -15.89,5.702 -18.098,13.863 -1.308,4.835 -0.653,9.894 1.842,14.237 2.495,4.344 6.532,7.457 11.368,8.764 l 32.395,8.76 65.766,237.212 c -9.368,4.621 -15.441,14.199 -15.441,24.861 0,15.291 12.44,27.732 27.732,27.732 15.292,0 27.733,-12.441 27.733,-27.732 0,-0.361 -0.007,-0.721 -0.021,-1.08 l 133.879,0 c -0.016,0.359 -0.021,0.719 -0.021,1.08 0,15.291 12.439,27.732 27.731,27.732 15.292,0 27.733,-12.441 27.733,-27.732 0,-14.055 -10.687,-25.838 -24.36,-27.52 -33.275,-5.375 -169.084,-11.941 -169.084,-11.941 l -4.461,-17.455 169.449,0 c 8.663,0 16.366,-5.822 18.732,-14.156 l 36.619,-128.996 13.459,0 c 11.229,0 20.33,-9.105 20.33,-20.333 0.002,-11.228 -9.1,-20.33 -20.33,-20.33 z m -215.831,140.647 -31.764,0 c -0.868,-0.017 -2.143,0.184 -2.725,-1.859 -0.737,-2.594 -1.772,-6.159 -1.772,-6.159 l -24.893,-87.692 c -0.122,-0.426 -0.034,-0.895 0.233,-1.248 0.269,-0.356 0.694,-0.569 1.14,-0.569 l 38.604,0 c 0.672,0 1.245,0.459 1.391,1.116 l 21.055,94.279 0.076,0.289 c 0.04,0.131 0.06,0.271 0.06,0.416 0.001,0.778 -0.628,1.415 -1.405,1.427 z m 81.061,-95.791 -17.156,94.676 c -0.146,0.656 -0.719,1.115 -1.392,1.115 l -23.958,0 c -0.675,0 -1.247,-0.459 -1.395,-1.117 l -17.155,-94.676 c -0.095,-0.422 0.007,-0.859 0.28,-1.201 0.271,-0.34 0.678,-0.535 1.112,-0.535 l 58.27,0 c 0.437,0 0.84,0.195 1.114,0.537 0.273,0.34 0.374,0.777 0.28,1.201 z m 81.159,0.08 -26.876,94.672 c -0.173,0.611 -0.738,1.039 -1.372,1.039 l -32.87,0 c -0.437,0 -0.841,-0.195 -1.113,-0.533 -0.272,-0.342 -0.374,-0.781 -0.279,-1.205 l 21.142,-94.674 c 0.144,-0.647 0.729,-1.117 1.394,-1.117 l 38.604,0 c 0.444,0 0.87,0.213 1.137,0.568 0.265,0.355 0.353,0.823 0.233,1.25 z"
   id="path7"
   inkscape:connector-curvature="0" />
		<path
   d="m 253.147,185.853 c 3.932,6.797 14.071,6.78 17.988,-0.012 l 49.671,-74.677 c 1.997,-3.468 1.81,-7.883 -0.481,-11.159 -2.173,-3.107 -5.54,-4.42 -9.223,-4.416 -3.642,0.002 -7.284,0.002 -10.924,0.004 l -17.239,0.013 0,-74.766 C 282.939,9.329 273.608,0 262.096,0 250.585,0 241.254,9.329 241.254,20.84 l 0,74.791 -12.877,0.009 -16.022,0.013 c -7.839,0.002 -12.917,8.777 -8.983,15.587 l 49.775,74.613 z"
   id="path9"
   inkscape:connector-curvature="0" />
	</g>
</g>
<g
   id="g11">
</g>
<g
   id="g13">
</g>
<g
   id="g15">
</g>
<g
   id="g17">
</g>
<g
   id="g19">
</g>
<g
   id="g21">
</g>
<g
   id="g23">
</g>
<g
   id="g25">
</g>
<g
   id="g27">
</g>
<g
   id="g29">
</g>
<g
   id="g31">
</g>
<g
   id="g33">
</g>
<g
   id="g35">
</g>
<g
   id="g37">
</g>
<g
   id="g39">
</g>
</svg>