<?xml version="1.0" encoding="UTF-8" standalone="no"?>
<!-- Generator: Adobe Illustrator 16.0.0, SVG Export Plug-In . SVG Version: 6.00 Build 0)  -->

<svg
   xmlns:dc="http://purl.org/dc/elements/1.1/"
   xmlns:cc="http://creativecommons.org/ns#"
   xmlns:rdf="http://www.w3.org/1999/02/22-rdf-syntax-ns#"
   xmlns:svg="http://www.w3.org/2000/svg"
   xmlns="http://www.w3.org/2000/svg"
   xmlns:sodipodi="http://sodipodi.sourceforge.net/DTD/sodipodi-0.dtd"
   xmlns:inkscape="http://www.inkscape.org/namespaces/inkscape"
   version="1.1"
   id="Capa_1"
   x="0px"
   y="0px"
   width="611.977px"
   height="611.977px"
   viewBox="0 0 611.977 611.977"
   style="enable-background:new 0 0 611.977 611.977;"
   xml:space="preserve"
   inkscape:version="0.91 r13725"
   sodipodi:docname="energy2.svg"><metadata
   id="metadata45"><rdf:RDF><cc:Work
       rdf:about=""><dc:format>image/svg+xml</dc:format><dc:type
         rdf:resource="http://purl.org/dc/dcmitype/StillImage" /><dc:title></dc:title></cc:Work></rdf:RDF></metadata><defs
   id="defs43" /><sodipodi:namedview
   pagecolor="#ffffff"
   bordercolor="#666666"
   borderopacity="1"
   objecttolerance="10"
   gridtolerance="10"
   guidetolerance="10"
   inkscape:pageopacity="0"
   inkscape:pageshadow="2"
   inkscape:window-width="1920"
   inkscape:window-height="1026"
   id="namedview41"
   showgrid="false"
   inkscape:zoom="0.38563541"
   inkscape:cx="305.98849"
   inkscape:cy="303.39537"
   inkscape:window-x="-4"
   inkscape:window-y="-4"
   inkscape:window-maximized="1"
   inkscape:current-layer="Capa_1" />
<g
   id="g3"
   style="fill:#007aff">
	<g
   id="g5">
		<path
   d="m 585.604,209.8 -20.724,0 0,-56.368 c 0,-14.536 -11.817,-26.396 -26.418,-26.396 l -512.066,0 C 11.817,127.036 0,138.896 0,153.432 l 0,305.112 c 0,14.601 11.817,26.396 26.396,26.396 l 512.066,0 c 14.6,0 26.396,-11.817 26.396,-26.396 l 0,-54.142 20.723,0 c 14.6,0 26.396,-11.753 26.396,-26.396 l 0,-141.788 C 612,221.618 600.204,209.8 585.604,209.8 Z m -73.538,222.347 -459.252,0 0,-252.297 459.251,0 0,56.368 0,141.787 10e-4,54.142 0,0 z"
   id="path7"
   inkscape:connector-curvature="0" />
		<polygon
   points="126.052,350.967 253.132,297.062 300.937,387.062 438.828,261.009 311.705,314.958 263.965,224.979 263.194,225.022 "
   id="polygon9" />
	</g>
</g>
<g
   id="g11">
</g>
<g
   id="g13">
</g>
<g
   id="g15">
</g>
<g
   id="g17">
</g>
<g
   id="g19">
</g>
<g
   id="g21">
</g>
<g
   id="g23">
</g>
<g
   id="g25">
</g>
<g
   id="g27">
</g>
<g
   id="g29">
</g>
<g
   id="g31">
</g>
<g
   id="g33">
</g>
<g
   id="g35">
</g>
<g
   id="g37">
</g>
<g
   id="g39">
</g>
</svg>