<?xml version="1.0" encoding="UTF-8" standalone="no"?>
<!-- Generator: Adobe Illustrator 16.0.0, SVG Export Plug-In . SVG Version: 6.00 Build 0)  -->

<svg
   xmlns:dc="http://purl.org/dc/elements/1.1/"
   xmlns:cc="http://creativecommons.org/ns#"
   xmlns:rdf="http://www.w3.org/1999/02/22-rdf-syntax-ns#"
   xmlns:svg="http://www.w3.org/2000/svg"
   xmlns="http://www.w3.org/2000/svg"
   xmlns:sodipodi="http://sodipodi.sourceforge.net/DTD/sodipodi-0.dtd"
   xmlns:inkscape="http://www.inkscape.org/namespaces/inkscape"
   version="1.1"
   id="Capa_1"
   x="0px"
   y="0px"
   width="97.968px"
   height="97.968px"
   viewBox="0 0 97.968 97.968"
   style="enable-background:new 0 0 97.968 97.968;"
   xml:space="preserve"
   inkscape:version="0.91 r13725"
   sodipodi:docname="group2.svg"><metadata
   id="metadata69"><rdf:RDF><cc:Work
       rdf:about=""><dc:format>image/svg+xml</dc:format><dc:type
         rdf:resource="http://purl.org/dc/dcmitype/StillImage" /><dc:title></dc:title></cc:Work></rdf:RDF></metadata><defs
   id="defs67" /><sodipodi:namedview
   pagecolor="#ffffff"
   bordercolor="#666666"
   borderopacity="1"
   objecttolerance="10"
   gridtolerance="10"
   guidetolerance="10"
   inkscape:pageopacity="0"
   inkscape:pageshadow="2"
   inkscape:window-width="1920"
   inkscape:window-height="1026"
   id="namedview65"
   showgrid="false"
   inkscape:zoom="2.4089498"
   inkscape:cx="48.984001"
   inkscape:cy="48.568883"
   inkscape:window-x="-4"
   inkscape:window-y="-4"
   inkscape:window-maximized="1"
   inkscape:current-layer="Capa_1" />
<g
   id="g3"
   style="fill:#007aff">
	<g
   id="g5">
		<path
   d="m 49.541,38.655 c 1.617,0 3.158,0.338 4.559,0.946 0.105,-2.286 0.893,-4.4 2.157,-6.15 -0.89,-0.186 -1.808,-0.285 -2.748,-0.285 l -8.906,0 c -0.938,0 -1.856,0.098 -2.739,0.282 1.347,1.869 2.152,4.15 2.165,6.62 1.637,-0.9 3.515,-1.413 5.512,-1.413 z"
   id="path7"
   inkscape:connector-curvature="0" />
		<circle
   cx="49.054001"
   cy="21.954"
   r="10.496"
   id="circle9" />
		<path
   d="m 65.539,50.36 c 5.342,0 9.67,-4.33 9.67,-9.67 0,-5.342 -4.328,-9.67 -9.67,-9.67 -5.292,0 -9.583,4.251 -9.663,9.524 3.049,1.912 5.187,5.146 5.577,8.9 1.242,0.582 2.623,0.916 4.086,0.916 z"
   id="path11"
   inkscape:connector-curvature="0" />
		<path
   d="m 32.571,31.019 c -5.343,0 -9.671,4.329 -9.671,9.67 0,5.341 4.328,9.669 9.671,9.669 1.892,0 3.651,-0.553 5.143,-1.492 0.475,-3.091 2.132,-5.794 4.499,-7.634 0.01,-0.181 0.027,-0.36 0.027,-0.543 0,-5.341 -4.33,-9.67 -9.669,-9.67 z"
   id="path13"
   inkscape:connector-curvature="0" />
		<path
   d="m 71.82,30.813 c 3.049,1.912 5.187,5.146 5.576,8.901 1.241,0.581 2.623,0.916 4.086,0.916 5.342,0 9.67,-4.329 9.67,-9.67 0,-5.341 -4.328,-9.67 -9.67,-9.67 -5.291,-10e-4 -9.582,4.251 -9.662,9.523 z"
   id="path15"
   inkscape:connector-curvature="0" />
		<circle
   cx="49.541"
   cy="50.673"
   r="9.6709995"
   id="circle17" />
		<path
   d="m 69.643,51.019 -8.144,0 c -0.089,3.258 -1.479,6.192 -3.679,8.301 6.068,1.806 10.509,7.434 10.509,14.082 l 0,3.092 c 8.04,-0.297 12.674,-2.573 12.979,-2.729 l 0.646,-0.328 0.067,0 0,-10.036 C 82.023,56.573 76.469,51.019 69.643,51.019 Z"
   id="path19"
   inkscape:connector-curvature="0" />
		<path
   d="m 85.585,41.289 -8.142,0 c -0.088,3.258 -1.479,6.192 -3.678,8.301 6.068,1.806 10.508,7.433 10.508,14.081 l 0,3.092 c 8.039,-0.296 12.674,-2.572 12.979,-2.729 l 0.646,-0.327 0.069,0 0,-10.036 c 0,-6.827 -5.554,-12.382 -12.382,-12.382 z"
   id="path21"
   inkscape:connector-curvature="0" />
		<path
   d="m 41.256,59.319 c -2.189,-2.099 -3.575,-5.017 -3.677,-8.254 -0.301,-0.022 -0.6,-0.047 -0.908,-0.047 l -8.203,0 c -6.828,0 -12.383,5.555 -12.383,12.383 l 0,10.037 0.025,0.155 0.691,0.218 c 5.227,1.633 9.893,2.383 13.944,2.621 l 0,-3.031 c 0.002,-6.647 4.441,-12.275 10.511,-14.082 z"
   id="path23"
   inkscape:connector-curvature="0" />
		<path
   d="m 53.643,61.003 -8.206,0 c -6.828,0 -12.383,5.557 -12.383,12.382 l 0,10.037 0.026,0.157 0.69,0.216 c 6.516,2.035 12.177,2.715 16.835,2.715 9.101,0 14.375,-2.595 14.701,-2.76 l 0.646,-0.328 0.068,0 0,-10.037 C 66.023,66.558 60.469,61.003 53.643,61.003 Z"
   id="path25"
   inkscape:connector-curvature="0" />
		<path
   d="m 16.486,40.938 c 1.463,0 2.844,-0.335 4.086,-0.916 0.39,-3.755 2.527,-6.99 5.576,-8.902 -0.08,-5.271 -4.371,-9.523 -9.662,-9.523 -5.343,0 -9.671,4.329 -9.671,9.671 0,5.341 4.328,9.67 9.671,9.67 z"
   id="path27"
   inkscape:connector-curvature="0" />
		<path
   d="M 24.202,49.899 C 22.004,47.79 20.613,44.855 20.525,41.596 l -8.143,0 C 5.554,41.597 0,47.152 0,53.979 l 0,10.037 0.069,0 0.646,0.327 c 0.306,0.154 4.939,2.433 12.979,2.728 l 0,-3.092 c 0,-6.647 4.439,-12.275 10.508,-14.08 z"
   id="path29"
   inkscape:connector-curvature="0" />
		<path
   d="m 27.796,30.063 c 1.16,-0.47 2.93,-1.047 4.62,-1.047 1.967,0 3.891,0.506 5.607,1.469 0.382,-0.375 0.732,-0.783 1.05,-1.22 -1.63,-2.141 -2.52,-4.765 -2.52,-7.464 0,-1.818 0.406,-3.622 1.18,-5.261 -1.762,-1.592 -4.01,-2.461 -6.399,-2.461 -4.348,0 -8.133,2.943 -9.241,7.088 3.248,1.89 5.364,5.194 5.703,8.896 z"
   id="path31"
   inkscape:connector-curvature="0" />
		<path
   d="m 59.117,28.718 c 0.336,0.534 0.729,1.037 1.175,1.505 1.588,-0.792 3.334,-1.208 5.092,-1.208 1.729,0 3.386,0.442 4.472,0.812 0.34,-4.013 2.767,-7.555 6.4,-9.35 -1.332,-3.805 -4.938,-6.402 -9.021,-6.402 -2.64,0 -5.14,1.084 -6.945,2.992 0.634,1.512 0.955,3.101 0.955,4.73 -10e-4,2.495 -0.735,4.873 -2.128,6.921 z"
   id="path33"
   inkscape:connector-curvature="0" />
	</g>
</g>
<g
   id="g35">
</g>
<g
   id="g37">
</g>
<g
   id="g39">
</g>
<g
   id="g41">
</g>
<g
   id="g43">
</g>
<g
   id="g45">
</g>
<g
   id="g47">
</g>
<g
   id="g49">
</g>
<g
   id="g51">
</g>
<g
   id="g53">
</g>
<g
   id="g55">
</g>
<g
   id="g57">
</g>
<g
   id="g59">
</g>
<g
   id="g61">
</g>
<g
   id="g63">
</g>
</svg>