<?xml version="1.0" encoding="iso-8859-1"?>
<!-- Generator: Adobe Illustrator 16.0.0, SVG Export Plug-In . SVG Version: 6.00 Build 0)  -->
<!DOCTYPE svg PUBLIC "-//W3C//DTD SVG 1.1//EN" "http://www.w3.org/Graphics/SVG/1.1/DTD/svg11.dtd">
<svg version="1.1" id="Capa_1" xmlns="http://www.w3.org/2000/svg" xmlns:xlink="http://www.w3.org/1999/xlink" x="0px" y="0px"
	 width="483.537px" height="483.537px" viewBox="0 0 483.537 483.537" style="enable-background:new 0 0 483.537 483.537;"
	 xml:space="preserve">
<g>
	<g>
		<g>
			<path d="M412.937,70.864C367.252,25.18,306.511,0,241.894,0C177.288,0,116.546,25.18,70.863,70.863
				C25.164,116.551,0.011,177.293,0.011,241.894c0,64.605,25.168,125.348,70.852,171.032
				c45.527,45.521,106.254,70.611,170.949,70.611c3.275,0,6.535-0.063,9.794-0.189c6.089-0.25,11.878-2.78,16.184-7.086
				L476.261,267.79c4.285-4.302,6.815-10.074,7.069-16.147C486.05,184.188,460.409,118.305,412.937,70.864z M238.651,434.961
				c-50.558-0.809-97.886-20.676-133.511-56.297c-36.523-36.543-56.66-85.105-56.66-136.77c0-51.665,20.137-100.227,56.66-136.766
				c36.543-36.527,85.105-56.648,136.754-56.648c51.664,0,100.242,20.121,136.767,56.648c35.448,35.434,55.048,81.828,56.22,131.719
				C330.382,246.579,247.491,330.195,238.651,434.961z"/>
			<path d="M152.155,248.493c-2.104-2.104-4.983-3.311-7.956-3.311c-2.992,0-5.84,1.203-7.988,3.341
				c-4.383,4.383-4.383,11.53,0.016,15.931l14.457,14.457c11.5,11.5,22.211,21.479,33.457,30.5l-76.723-23.634
				c-4-1.22-8.336-0.146-11.293,2.812l-7.496,7.5c-2.105,2.104-3.293,4.966-3.293,7.975c0,2.973,1.188,5.852,3.293,7.957
				l60.805,60.788c4.414,4.397,11.547,4.397,15.945,0c2.105-2.116,3.305-4.979,3.305-7.974c0-2.987-1.199-5.853-3.305-7.957
				l-15.152-15.151c-12.516-12.513-23.555-23.095-34.12-32.793l80.104,24.565c4,1.22,8.336,0.146,11.293-2.801l5.441-5.475
				c4.398-4.414,4.398-11.547,0-15.943L152.155,248.493z"/>
			<path d="M263.499,246.215l-24.422,24.406l-18.192-18.191l21.134-21.164c3.906-3.891,3.906-10.203-0.016-14.109
				c-1.853-1.883-4.397-2.926-7.055-2.926c-2.656,0-5.188,1.043-7.055,2.926l-21.148,21.164l-15.914-15.945l22.793-22.809
				c3.922-3.91,3.922-10.285,0-14.207c-1.883-1.883-4.445-2.941-7.117-2.941c-2.656,0-5.203,1.059-7.103,2.941l-32.254,32.27
				c-4.398,4.398-4.398,11.547,0.017,15.945l60.727,60.741c4.398,4.397,11.531,4.397,15.943,0l33.884-33.897
				c1.885-1.883,2.958-4.414,2.958-7.086s-1.073-5.203-2.941-7.086C273.784,242.29,267.409,242.29,263.499,246.215z"/>
			<path d="M320.526,85.133c-1.866-3.133-5.062-5.25-8.668-5.711c-3.642-0.457-7.262,0.777-9.854,3.371
				c-3.97,3.969-4.57,10.188-1.475,14.852l19.773,29.645c7.515,10.695,14.776,21.402,22.211,31.07l-0.238,0.234
				c-9.646-7.434-19.107-14.363-29.832-21.641l-30.371-20.656c-4.684-3.195-10.995-2.594-14.979,1.422l-4.699,4.699
				c-3.974,3.969-4.621,10.141-1.521,14.836l19.617,29.867c7.512,11.375,14.897,22.414,21.97,31.969l-0.234,0.254
				c-9.005-6.521-20.488-14.84-31.289-22.211l-28.871-19.93c-4.949-3.418-11.641-2.816-15.93,1.438
				c-2.703,2.738-4.017,6.535-3.59,10.332c0.461,3.781,2.608,7.18,5.867,9.176l73.497,45.27c4.664,2.879,10.676,2.184,14.552-1.707
				l5.692-5.664c3.894-3.922,4.571-10.027,1.583-14.711l-20.594-32.301c-5.918-9.57-11.977-18.066-19.254-28.063l0.238-0.254
				c9.68,7.863,18.098,13.762,27.284,20.027l31.448,21.102c4.699,3.133,10.945,2.531,14.918-1.453l5.457-5.441
				c3.813-3.828,4.557-9.715,1.802-14.363L320.526,85.133z"/>
		</g>
	</g>
</g>
<g>
</g>
<g>
</g>
<g>
</g>
<g>
</g>
<g>
</g>
<g>
</g>
<g>
</g>
<g>
</g>
<g>
</g>
<g>
</g>
<g>
</g>
<g>
</g>
<g>
</g>
<g>
</g>
<g>
</g>
</svg>
