<svg width="512" height="512" xmlns="http://www.w3.org/2000/svg">
 <g>
  <title>Layer 1</title>
  <path d="m192.093002,241.884995c-7.38501,-6.419022 -16.972,-10.07402 -27.029999,-10.07402c-22.509003,0 -40.822014,18.003021 -40.822014,40.131012c0,42.972015 61.370995,77.382019 63.982994,78.825989c1.203995,0.666016 2.537003,0.998016 3.87001,0.998016c1.333008,0 2.666,-0.333008 3.87001,-0.998016c2.612,-1.442993 63.98201,-35.853973 63.98201,-78.825989c0,-22.127991 -18.313019,-40.131012 -40.822021,-40.131012c-10.059998,0.000031 -19.646988,3.655014 -27.030991,10.07402zm51.852005,30.056992c0,25.76001 -34.434998,51.990997 -51.856995,62.571014c-17.428009,-10.561005 -51.848007,-36.749023 -51.848007,-62.571014c0,-13.306 11.13501,-24.131012 24.822021,-24.131012c8.186996,0 15.845978,3.936005 20.490005,10.528015c1.498993,2.127991 3.937988,3.394012 6.541,3.394012s5.041992,-1.266022 6.540985,-3.394012c4.644012,-6.593002 12.303009,-10.528015 20.489014,-10.528015c13.685989,0.000031 24.821991,10.825012 24.821991,24.131012l-0.000015,0zm175.940979,-271.941986l-199.860992,0c-22.042999,0 -39.977997,17.934 -39.977997,39.978001l0,23.978001l-87.931999,0c-22.043999,0 -39.977997,17.933998 -39.977997,39.977997l0,368.088982c0,22.044006 17.933998,39.977997 39.977997,39.977997l199.860008,0c22.044006,0 39.977997,-17.93399 39.977997,-39.977997l0,-23.977997l87.932983,0c22.042999,0 39.978058,-17.93399 39.978058,-39.977997l0,-368.088985c0,-22.044001 -17.935059,-39.978001 -39.978058,-39.978001zm-103.932983,119.791c-0.001007,0.083 -0.001007,0.167 0,0.25l0,47.845001c0,0.000992 0,0.003006 0,0.005005l0,47.960999c0,0.001999 0,0.002991 0,0.00499l0,47.960999c0,0.001007 0,0.003021 0,0.005005l0,47.960999c0,0.001007 0,0.002991 0,0.005005l0,47.960968c0,0.001007 0,0.002991 0,0.005005l0,112.264984c0,13.221008 -10.756012,23.977997 -23.977997,23.977997l-199.860016,0c-13.222,0 -23.977997,-10.755981 -23.977997,-23.977997l0,-368.086967c0,-13.221001 10.755997,-23.978012 23.977997,-23.978012l95.856003,0c0.026001,0 0.05101,0.003998 0.077011,0.003998s0.05098,-0.002998 0.076996,-0.003998l39.813004,0c0.028,0 0.054001,0.003998 0.082001,0.003998s0.054001,-0.003998 0.082001,-0.003998l63.873001,0c13.221985,0 23.977997,10.757004 23.977997,23.978012l0,15.858002l0,0.000008zm-79.932999,-55.835999l0,-7.983002l12.668991,0l7.983002,7.983002l-20.651993,0zm35.296982,-7.983002l25.338989,0l11.348022,11.348999c-4.911011,-2.158997 -10.330017,-3.365997 -16.029022,-3.365997l-12.674988,0l-7.983002,-7.983002zm47.966003,0l25.338989,0l59.269012,59.268997l0,25.339005l-84.608002,-84.608002zm47.96701,0l36.641998,0l0,36.641998l-36.641998,-36.641998zm-38.661987,31.931999l75.303986,75.303993l0,25.339005l-71.937988,-71.938004l0,-12.675003c-0.001007,-5.699997 -1.208008,-11.120003 -3.365997,-16.029999l0,0.000008zm3.36499,268.53701l0,-25.338989l60.625,60.625l-25.338989,0l-35.286011,-35.286011zm12.65799,35.28598l-12.65799,0l0,-12.658997l12.65799,12.658997zm-12.65799,-83.251984l0,-25.338989l71.938019,71.939026l0,25.338989l-71.938019,-71.939026zm0,-47.96701l0,-25.338989l71.938019,71.938019l0,25.33902l-71.938019,-71.938049zm0,-47.965973l0,-25.33902l71.938019,71.938019l0,25.339996l-71.938019,-71.938995zm0,-47.967026l0,-25.339005l71.938019,71.938019l0,25.339005l-71.938019,-71.938019zm111.911011,243.491989c0,13.221008 -10.756012,23.977997 -23.977997,23.977997l-87.933014,0l0,-24.317963l79.938019,0c0.263,0 0.527008,-0.014008 0.789001,-0.040009c0.118988,-0.011017 0.234009,-0.033997 0.350952,-0.049988c0.141022,-0.021027 0.28302,-0.037048 0.423004,-0.065033c0.134003,-0.026001 0.265015,-0.062988 0.397003,-0.097015c0.121002,-0.029999 0.242004,-0.056976 0.362,-0.092987c0.130005,-0.040009 0.257019,-0.088013 0.384003,-0.134003c0.118011,-0.041962 0.238007,-0.082001 0.354004,-0.128998c0.118988,-0.049988 0.234009,-0.106995 0.350006,-0.162994c0.119995,-0.057007 0.242004,-0.110016 0.359985,-0.173004c0.112,-0.059998 0.218994,-0.128998 0.328003,-0.194c0.115021,-0.069 0.231018,-0.132996 0.343018,-0.208008c0.121979,-0.082001 0.237976,-0.173004 0.35498,-0.260986c0.091003,-0.067993 0.184998,-0.132019 0.274017,-0.205017c0.40799,-0.334991 0.78299,-0.708954 1.117981,-1.117981c0.072998,-0.08902 0.136017,-0.183014 0.205017,-0.274017c0.087982,-0.117004 0.179016,-0.231995 0.261017,-0.354004c0.074982,-0.112 0.139984,-0.228973 0.208984,-0.342987c0.065002,-0.109009 0.133026,-0.214996 0.192993,-0.326996c0.063995,-0.118988 0.118011,-0.242004 0.174988,-0.364014c0.054016,-0.11499 0.111023,-0.227997 0.160004,-0.345001c0.050018,-0.119995 0.089996,-0.241974 0.132996,-0.362976c0.045013,-0.125 0.093018,-0.248016 0.131012,-0.376007c0.036987,-0.122009 0.063995,-0.246002 0.095001,-0.369995c0.03299,-0.128998 0.069,-0.257019 0.095001,-0.389008c0.028992,-0.144989 0.04599,-0.291046 0.066986,-0.437012c0.016022,-0.112 0.037018,-0.222992 0.049011,-0.337006c0.026001,-0.264008 0.040009,-0.527985 0.040009,-0.79303l0,-47.960968c0,-0.001984 0,-0.002991 0,-0.004974l0,-47.960999c0,-0.001007 0,-0.003021 0,-0.005005l0,-47.962997c0,-0.001007 0,-0.003006 0,-0.005005l0,-47.960999c0,-0.001999 0,-0.003006 0,-0.005005l0,-47.960999c0,-0.000992 0,-0.002991 0,-0.00499l0,-47.963005c0,-0.001999 0,-0.002998 0,-0.004997l0,-63.953003c0,-4.417999 -3.582001,-8 -8,-8l-63.95401,0c0,0 -0.001953,0 -0.001953,0l-95.93103,0c0,0 -0.001999,0 -0.001999,0l-23.983032,0c-4.417999,0 -8,3.582001 -8,8l0,15.983002l-23.972,0l0,-23.977001c0,-13.221001 10.756012,-23.978001 23.978012,-23.978001l199.860977,0c13.221008,0 23.977997,10.756001 23.977997,23.978001l0,368.088985l-0.000977,0l0.000031,0zm-344.259003,-237.36998l4.048996,-10.797989l24.885986,0l4.049011,10.797989c1.205002,3.210999 4.251999,5.193008 7.491989,5.193008c0.933014,0 1.883011,-0.164001 2.808014,-0.511002c4.136993,-1.55101 6.232986,-6.16301 4.681992,-10.299988l-23.983002,-63.956017c-0.029999,-0.079002 -0.068001,-0.152 -0.099998,-0.228996c-0.054001,-0.132004 -0.109001,-0.264 -0.170998,-0.394005c-0.056,-0.118996 -0.117004,-0.234001 -0.179001,-0.348999c-0.060997,-0.112999 -0.122002,-0.224998 -0.187004,-0.334c-0.070999,-0.118996 -0.146996,-0.234001 -0.223,-0.348999c-0.067986,-0.101013 -0.135986,-0.199997 -0.208,-0.296997c-0.081985,-0.111 -0.167,-0.218994 -0.254997,-0.324005c-0.079002,-0.097 -0.159996,-0.190994 -0.243996,-0.283997c-0.087013,-0.097 -0.177002,-0.190002 -0.269005,-0.281013c-0.095001,-0.095001 -0.191002,-0.187996 -0.291,-0.278c-0.088997,-0.081001 -0.181,-0.158997 -0.274002,-0.235001c-0.108986,-0.089996 -0.219986,-0.177986 -0.334,-0.263c-0.093987,-0.069 -0.189987,-0.135986 -0.286987,-0.200996c-0.117996,-0.080002 -0.236,-0.156998 -0.359001,-0.230003c-0.105995,-0.062996 -0.214996,-0.122986 -0.323997,-0.181999c-0.118004,-0.062996 -0.235001,-0.125 -0.357002,-0.182999c-0.125999,-0.059998 -0.254997,-0.113998 -0.385002,-0.167c-0.078995,-0.032997 -0.153999,-0.071999 -0.234993,-0.101997c-0.035004,-0.013 -0.07,-0.021004 -0.105003,-0.033005c-0.139999,-0.050987 -0.282013,-0.092987 -0.425003,-0.134987c-0.111,-0.032997 -0.222,-0.069 -0.334,-0.097c-0.140999,-0.036003 -0.283997,-0.061996 -0.426994,-0.089996c-0.115005,-0.022003 -0.230003,-0.048004 -0.345001,-0.064995c-0.141998,-0.020996 -0.285004,-0.032005 -0.426994,-0.046005c-0.116997,-0.011002 -0.232994,-0.026001 -0.348999,-0.032005c-0.143997,-0.006996 -0.289001,-0.003998 -0.434006,-0.002998c-0.115005,0.000999 -0.230003,-0.001999 -0.345001,0.002998c-0.143005,0.007004 -0.286003,0.024002 -0.428993,0.039001c-0.116997,0.012001 -0.234001,0.019997 -0.349007,0.036987c-0.134003,0.020004 -0.268005,0.049004 -0.401993,0.076004c-0.125,0.025002 -0.25,0.047997 -0.373001,0.079002c-0.124001,0.030998 -0.246994,0.07 -0.369995,0.107986c-0.131004,0.040001 -0.262001,0.078003 -0.391006,0.125c-0.036995,0.013 -0.074997,0.021004 -0.112,0.036003c-0.085999,0.031998 -0.166,0.072998 -0.25,0.107994c-0.121994,0.050995 -0.244995,0.101006 -0.364998,0.158005c-0.127007,0.059998 -0.25,0.125 -0.373001,0.190994c-0.103996,0.056007 -0.208,0.112007 -0.310005,0.173004c-0.125999,0.074997 -0.249001,0.154999 -0.370003,0.237c-0.094002,0.063004 -0.186996,0.126999 -0.278,0.194c-0.116997,0.085999 -0.228996,0.176003 -0.341003,0.268013c-0.090996,0.074997 -0.181,0.150986 -0.268997,0.230995c-0.100998,0.091003 -0.199013,0.186005 -0.293999,0.280998c-0.090004,0.091003 -0.179001,0.183014 -0.264999,0.278c-0.085014,0.094002 -0.166,0.189003 -0.246002,0.287003c-0.086998,0.105003 -0.170998,0.210999 -0.252998,0.321999c-0.073013,0.098 -0.141014,0.198013 -0.209,0.299004c-0.077003,0.113998 -0.152,0.228996 -0.223015,0.348c-0.065987,0.110001 -0.126999,0.222 -0.186996,0.334999c-0.061996,0.114998 -0.123001,0.229004 -0.179001,0.348c-0.061996,0.128998 -0.116997,0.262001 -0.170998,0.395004c-0.031998,0.076996 -0.07,0.149986 -0.098999,0.228996l-23.983002,63.955017c-1.551003,4.136978 0.544998,8.747986 4.681999,10.298996c0.926003,0.347 1.875,0.511002 2.807999,0.511002c3.237999,0.001007 6.287003,-1.981003 7.491005,-5.192993l0.000008,-0.000015zm16.491997,-43.979996l6.443001,17.182007l-12.886002,0l6.443001,-17.182007zm178.686989,273.858978c-4.134003,-1.550995 -8.747986,0.544006 -10.299988,4.682007l-4.049011,10.798004l-24.886002,0l-4.048981,-10.798004c-1.552017,-4.136993 -6.16301,-6.231995 -10.300018,-4.682007c-4.136993,1.552002 -6.232986,6.162994 -4.681992,10.299988l23.983002,63.955017c0.015991,0.041992 0.039978,0.078003 0.056,0.118988c0.127991,0.325012 0.273987,0.643005 0.442993,0.949005c0.018005,0.032013 0.03299,0.067047 0.050995,0.098999c0.175995,0.307037 0.377991,0.598999 0.593994,0.881012c0.055023,0.071991 0.109009,0.141998 0.166016,0.210999c0.221985,0.271027 0.458008,0.531036 0.714996,0.77298c0.029999,0.028046 0.062012,0.052002 0.091003,0.078003c0.23999,0.218018 0.496002,0.419006 0.764008,0.608002c0.060974,0.042999 0.121002,0.087006 0.18399,0.128021c0.292999,0.194977 0.598999,0.375 0.921997,0.531982c0.042999,0.020996 0.088989,0.037018 0.132996,0.058014c0.18399,0.085999 0.369019,0.17099 0.562012,0.243988c0.106995,0.040009 0.216003,0.070007 0.324005,0.105011c0.069,0.02298 0.136993,0.04599 0.207001,0.066986c0.334991,0.100006 0.671997,0.178009 1.009979,0.233002c0.059998,0.01001 0.119995,0.015991 0.180023,0.024017c0.363983,0.049988 0.72699,0.082977 1.087982,0.082977l0.001007,0l0.001007,0c0.360992,0 0.724976,-0.03299 1.087982,-0.082977c0.059998,-0.008026 0.119995,-0.014008 0.179993,-0.024017c0.338013,-0.054993 0.675018,-0.132996 1.01001,-0.233002c0.069,-0.020996 0.136993,-0.044006 0.205017,-0.066986c0.108002,-0.035004 0.21698,-0.065002 0.324982,-0.105011c0.195007,-0.072998 0.380005,-0.158997 0.56601,-0.244995c0.041992,-0.019989 0.085999,-0.035004 0.127991,-0.056c0.325012,-0.15799 0.631012,-0.338013 0.925018,-0.533997c0.060974,-0.041016 0.119995,-0.084015 0.179993,-0.126007c0.270996,-0.19101 0.528992,-0.394012 0.770996,-0.613983c0.027985,-0.025024 0.057007,-0.047028 0.083984,-0.073029c0.259003,-0.241974 0.496002,-0.502991 0.718018,-0.774994c0.056,-0.069 0.109985,-0.138 0.164001,-0.208984c0.216003,-0.28302 0.419006,-0.575012 0.596008,-0.884003c0.017975,-0.031006 0.031982,-0.063995 0.048981,-0.095001c0.170013,-0.307007 0.31601,-0.626007 0.445007,-0.953003c0.015991,-0.041016 0.040009,-0.076996 0.054993,-0.118011l23.983002,-63.954987c1.552002,-4.134979 -0.544006,-8.746002 -4.681,-10.298004zm-26.792999,48.662018l-6.442993,-17.182007l12.886017,0l-6.442993,17.182007l-0.000031,0zm-39.970978,6.790009l-119.911011,0l0,-256.162003c0,-4.417999 -3.582001,-8 -8,-8s-8,3.582001 -8,8l0,264.161972c0,4.417999 3.582001,8 8,8l127.911011,0c4.417999,0 8,-3.582001 8,-8s-3.582001,-7.999969 -8,-7.999969zm-71.949997,-336.099998l119.910995,0l0,256.161003c0,4.417999 3.582001,8 8,8s8,-3.582001 8,-8l0,-264.161003c0,-4.417999 -3.582001,-8 -8,-8l-127.910995,0c-4.417999,0 -8,3.582001 -8,8c0,4.418007 3.580994,8 8,8z" id="svg_1" fill="#999999" stroke="#999999"/>
 </g>
</svg>