<?xml version="1.0" encoding="UTF-8" standalone="no"?>
<!-- Generator: Adobe Illustrator 16.0.0, SVG Export Plug-In . SVG Version: 6.00 Build 0)  -->

<svg
   xmlns:dc="http://purl.org/dc/elements/1.1/"
   xmlns:cc="http://creativecommons.org/ns#"
   xmlns:rdf="http://www.w3.org/1999/02/22-rdf-syntax-ns#"
   xmlns:svg="http://www.w3.org/2000/svg"
   xmlns="http://www.w3.org/2000/svg"
   xmlns:sodipodi="http://sodipodi.sourceforge.net/DTD/sodipodi-0.dtd"
   xmlns:inkscape="http://www.inkscape.org/namespaces/inkscape"
   version="1.1"
   id="Capa_1"
   x="0px"
   y="0px"
   width="964.6px"
   height="964.599px"
   viewBox="0 0 964.6 964.599"
   style="enable-background:new 0 0 964.6 964.599;"
   xml:space="preserve"
   inkscape:version="0.91 r13725"
   sodipodi:docname="rasklad2.svg"><metadata
   id="metadata43"><rdf:RDF><cc:Work
       rdf:about=""><dc:format>image/svg+xml</dc:format><dc:type
         rdf:resource="http://purl.org/dc/dcmitype/StillImage" /><dc:title></dc:title></cc:Work></rdf:RDF></metadata><defs
   id="defs41" /><sodipodi:namedview
   pagecolor="#ffffff"
   bordercolor="#666666"
   borderopacity="1"
   objecttolerance="10"
   gridtolerance="10"
   guidetolerance="10"
   inkscape:pageopacity="0"
   inkscape:pageshadow="2"
   inkscape:window-width="1920"
   inkscape:window-height="1026"
   id="namedview39"
   showgrid="false"
   inkscape:zoom="0.24466125"
   inkscape:cx="-235.01834"
   inkscape:cy="482.2995"
   inkscape:window-x="-4"
   inkscape:window-y="-4"
   inkscape:window-maximized="1"
   inkscape:current-layer="Capa_1" />
<g
   id="g3">
	<g
   id="g5">
		<path
   d="m 35.8,775.35 267.6,0 32.7,0 292.4,0 32.7,0 267.6,0 c 19.8,0 35.8,-16 35.8,-35.801 l 0,-259.399 c 0,-19.8 -16,-35.8 -35.8,-35.8 l -267.6,0 0,-219.3 c 0,-19.8 -16,-35.8 -35.801,-35.8 l -286.199,0 c -19.801,0 -35.801,16 -35.801,35.8 l 0,157.7 -267.599,0 c -19.8,0 -35.8,16 -35.8,35.8 l 0,320.9 c 0,19.8 16,35.9 35.8,35.9 z m 706.5,-121.5 17.7,-2.2 c 4.899,-0.601 9.399,2.5 10.899,7.2 1.7,5.6 4.4,10.199 8,13.699 5.301,5.101 11.7,7.601 19.2,7.601 8,0 14.8,-3.101 20.3,-9.2 5.5,-6.099 8.301,-14.3 8.301,-24.7 0,-9.8 -2.601,-17.6 -7.9,-23.3 -5.299,-5.7 -11.7,-8.6 -19.3,-8.6 -1.5,0 -3.101,0.1 -4.8,0.3 -6.601,0.7 -12.101,-5 -11.2,-11.601 l 1.2,-9.1 c 0.6,-4.7 4.399,-8.3 9.1,-8.8 6.8,-0.8 12.2,-3 16.2,-6.5 5.6,-4.9 8.3,-11.3 8.3,-19.4 0,-6.8 -2,-12.3 -6.1,-16.399 -4.101,-4.101 -9.5,-6.101 -16.2,-6.101 -6.7,0 -12.4,2.3 -17.101,6.9 -3,3 -5.3,6.8 -6.8,11.5 -1.6,4.899 -6.399,7.899 -11.5,7.1 l -15.3,-2.6 c -6.1,-1 -9.9,-7.3 -8,-13.2 2.2,-7.2 5,-13.2 8.4,-18.1 5,-7.4 12.1,-13.101 21.1,-17.301 9,-4.199 19.1,-6.3 30.3,-6.3 19.2,0 34.5,6.101 46.101,18.3 9.5,10 14.3,21.301 14.3,33.9 0,17.9 -9.8,32.1 -29.3,42.7 11.699,2.5 21,8.1 28,16.8 7,8.7 10.5,19.2 10.5,31.5 0,17.9 -6.5,33.1 -19.601,45.7 -13,12.6 -29.3,18.9 -48.7,18.9 -18.399,0 -33.699,-5.301 -45.8,-15.9 -9.3,-8.1 -15.6,-18.1 -18.899,-30 -1.7,-5.998 2.4,-12.099 8.6,-12.798 z m -312,-338.6 c 0,-4.1 2.4,-7.8 6.1,-9.4 8.4,-3.6 17.5,-9.2 27,-16.6 10,-7.8 17.301,-16.6 22.101,-26.6 1.7,-3.6 5.3,-6 9.3,-6 l 14.6,0 c 5.7,0 10.2,4.6 10.2,10.2 l 0,183.8 c 0,5.7 -4.6,10.2 -10.2,10.2 l -18.5,0 c -5.699,0 -10.199,-4.601 -10.199,-10.2 l 0,-136.6 c -10.601,9.9 -22.601,17.9 -35.9,23.9 -6.8,3.1 -14.4,-1.9 -14.4,-9.3 l 0,-13.4 -0.102,0 z M 97.8,634.85 c 2.3,-9.101 6,-17.9 11.1,-26.301 7.4,-12.3 22,-28.5 43.9,-48.8 17.6,-16.399 28.4,-27.5 32.3,-33.3 5.4,-8 8,-16 8,-23.9 0,-8.699 -2.3,-15.399 -7,-20.1 -4.7,-4.7 -11.1,-7 -19.4,-7 -8.1,0 -14.6,2.5 -19.4,7.4 -3.4,3.5 -5.8,8.6 -7.2,15.399 -1,5.101 -5.8,8.601 -11,8.101 l -18.2,-1.801 c -6.1,-0.6 -10.3,-6.399 -9,-12.399 3.4,-15.7 10,-27.3 20,-34.9 12.2,-9.3 27.5,-14 45.8,-14 20.1,0 35.9,5.4 47.3,16.2 11.5,10.8 17.2,24.3 17.2,40.4 0,9.199 -1.6,17.899 -4.9,26.199 -3.3,8.301 -8.5,17 -15.6,26 -4.7,6 -13.2,14.7 -25.5,26 -12.3,11.301 -20.1,18.801 -23.4,22.5 -3.3,3.7 -5.9,7.301 -8,10.801 l 67.2,0 c 5.7,0 10.2,4.6 10.2,10.199 l 0,15.7 c 0,5.7 -4.6,10.2 -10.2,10.2 l -114.2,0 c -6.6,0.002 -11.6,-6.198 -10,-12.598 z"
   id="path7"
   inkscape:connector-curvature="0"
   style="fill:#007aff" />
	</g>
</g>
<g
   id="g9">
</g>
<g
   id="g11">
</g>
<g
   id="g13">
</g>
<g
   id="g15">
</g>
<g
   id="g17">
</g>
<g
   id="g19">
</g>
<g
   id="g21">
</g>
<g
   id="g23">
</g>
<g
   id="g25">
</g>
<g
   id="g27">
</g>
<g
   id="g29">
</g>
<g
   id="g31">
</g>
<g
   id="g33">
</g>
<g
   id="g35">
</g>
<g
   id="g37">
</g>
</svg>