<?xml version="1.0" encoding="UTF-8" standalone="no"?>
<!-- Generator: Adobe Illustrator 18.1.1, SVG Export Plug-In . SVG Version: 6.00 Build 0)  -->

<svg
   xmlns:dc="http://purl.org/dc/elements/1.1/"
   xmlns:cc="http://creativecommons.org/ns#"
   xmlns:rdf="http://www.w3.org/1999/02/22-rdf-syntax-ns#"
   xmlns:svg="http://www.w3.org/2000/svg"
   xmlns="http://www.w3.org/2000/svg"
   xmlns:sodipodi="http://sodipodi.sourceforge.net/DTD/sodipodi-0.dtd"
   xmlns:inkscape="http://www.inkscape.org/namespaces/inkscape"
   version="1.1"
   id="Capa_1"
   x="0px"
   y="0px"
   viewBox="0 0 26.445 26.445"
   style="enable-background:new 0 0 26.445 26.445;"
   xml:space="preserve"
   inkscape:version="0.91 r13725"
   sodipodi:docname="vip2.svg"><metadata
   id="metadata47"><rdf:RDF><cc:Work
       rdf:about=""><dc:format>image/svg+xml</dc:format><dc:type
         rdf:resource="http://purl.org/dc/dcmitype/StillImage" /><dc:title></dc:title></cc:Work></rdf:RDF></metadata><defs
   id="defs45" /><sodipodi:namedview
   pagecolor="#ffffff"
   bordercolor="#666666"
   borderopacity="1"
   objecttolerance="10"
   gridtolerance="10"
   guidetolerance="10"
   inkscape:pageopacity="0"
   inkscape:pageshadow="2"
   inkscape:window-width="1920"
   inkscape:window-height="1026"
   id="namedview43"
   showgrid="false"
   inkscape:zoom="8.9241824"
   inkscape:cx="13.2225"
   inkscape:cy="13.110445"
   inkscape:window-x="-4"
   inkscape:window-y="-4"
   inkscape:window-maximized="1"
   inkscape:current-layer="g3" />
<g
   id="g3"
   style="fill:#999999">
	<path
   style="fill:#007aff"
   d="m 10.753,15.334 -0.01,0 c -0.052,0.209 -0.104,0.476 -0.162,0.681 l -0.21,0.751 0.781,0 -0.22,-0.751 C 10.87,15.806 10.807,15.543 10.753,15.334 Z"
   id="path5"
   inkscape:connector-curvature="0" />
	<path
   style="fill:#007aff"
   d="m 16.016,9.096 c -0.25,0 -0.426,0.018 -0.518,0.043 l 0,1.664 c 0.108,0.025 0.234,0.034 0.427,0.034 0.678,0 1.096,-0.342 1.096,-0.913 0,-0.519 -0.361,-0.828 -1.005,-0.828 z"
   id="path7"
   inkscape:connector-curvature="0" />
	<path
   style="fill:#007aff"
   d="m 7.8144531,15.316406 c -0.156,0 -0.2681719,0.01139 -0.3261719,0.02539 l 0,1.044922 c 0.068,0.017 0.1465313,0.02148 0.2695313,0.02148 0.425,0 0.6875,-0.215266 0.6875,-0.572265 -10e-4,-0.324002 -0.2248594,-0.519532 -0.6308594,-0.519532 z"
   id="path9"
   inkscape:connector-curvature="0" />
	<path
   style="fill:#007aff"
   d="m 24.575,11.604 1.87,-1.872 -1.87,-1.869 1.493,-1.493 -23.292,0 0,0.352 -0.415,0 0,-0.352 -2.361,0 0,13.705 25.563,0 -0.988,-0.988 1.87,-1.87 -1.87,-1.871 1.87,-1.871 c 0,0 -1.87,-1.871 -1.87,-1.871 z m -21.799,7.873 -0.415,0 0,-1.062 0.415,0 0,1.062 z m 0,-2.124 -0.415,0 0,-1.064 0.415,0 0,1.064 z m 0,-2.128 -0.415,0 0,-1.062 0.415,0 0,1.062 z m 0,-2.126 -0.415,0 0,-1.062 0.415,0 c 0,0 0,1.062 0,1.062 z m 0,-2.126 -0.415,0 0,-1.062 0.415,0 0,1.062 z m 0,-2.124 -0.415,0 0,-1.066 0.415,0 0,1.066 z m 9.08,-0.681 1.272,0 0,5.642 -1.272,0 c 0,0 0,-5.642 0,-5.642 z m -4.411,0 0.688,2.385 c 0.191,0.677 0.368,1.313 0.501,2.015 l 0.025,0 C 8.803,11.891 8.978,11.222 9.17,10.577 l 0.721,-2.409 1.355,0 -1.9,5.642 -1.489,0 -1.808,-5.642 c 0,0 1.396,0 1.396,0 z m 0.317,8.854 c -0.104,0 -0.198,-0.005 -0.272,-0.021 l 0,1.271 -0.793,0 0,-3.491 c 0.247,-0.042 0.594,-0.072 1.082,-0.072 0.493,0 0.845,0.093 1.08,0.282 0.231,0.18 0.378,0.473 0.378,0.818 0,0.348 -0.109,0.646 -0.325,0.841 -0.273,0.253 -0.677,0.372 -1.15,0.372 z m 3.779,1.25 -0.272,-0.909 -1.013,0 -0.252,0.909 -0.824,0 1.076,-3.537 1.05,0 1.102,3.537 -0.867,0 z m 2.199,0.052 c -0.404,0 -0.803,-0.11 -1.003,-0.22 l 0.162,-0.656 c 0.21,0.11 0.547,0.221 0.888,0.221 0.367,0 0.561,-0.152 0.561,-0.385 0,-0.221 -0.167,-0.345 -0.593,-0.492 -0.586,-0.211 -0.976,-0.535 -0.976,-1.05 0,-0.604 0.509,-1.06 1.339,-1.06 0.403,0 0.692,0.078 0.901,0.178 l -0.178,0.641 c -0.138,-0.067 -0.394,-0.167 -0.735,-0.167 -0.345,0 -0.513,0.161 -0.513,0.34 0,0.225 0.193,0.326 0.655,0.499 0.625,0.231 0.914,0.557 0.914,1.056 10e-4,0.591 -0.451,1.095 -1.422,1.095 z m 2.833,0 c -0.403,0 -0.803,-0.11 -1.002,-0.22 l 0.163,-0.656 c 0.209,0.11 0.546,0.221 0.886,0.221 0.369,0 0.563,-0.152 0.563,-0.385 0,-0.221 -0.168,-0.345 -0.594,-0.492 -0.589,-0.211 -0.977,-0.535 -0.977,-1.05 0,-0.604 0.509,-1.06 1.339,-1.06 0.403,0 0.692,0.078 0.903,0.178 l -0.18,0.641 c -0.136,-0.067 -0.393,-0.167 -0.734,-0.167 -0.348,0 -0.514,0.161 -0.514,0.34 0,0.225 0.192,0.326 0.656,0.499 0.624,0.231 0.911,0.557 0.911,1.056 0.002,0.591 -0.448,1.095 -1.42,1.095 z m 1.192,-7.102 c -0.434,0.401 -1.079,0.595 -1.832,0.595 -0.167,0 -0.318,-0.009 -0.435,-0.034 l 0,2.027 -1.264,0 0,-5.568 c 0.393,-0.065 0.944,-0.116 1.723,-0.116 0.787,0 1.349,0.15 1.727,0.451 0.366,0.286 0.601,0.753 0.601,1.306 -0.001,0.551 -0.177,1.029 -0.52,1.339 z"
   id="path11"
   inkscape:connector-curvature="0" />
</g>
<g
   id="g13">
</g>
<g
   id="g15">
</g>
<g
   id="g17">
</g>
<g
   id="g19">
</g>
<g
   id="g21">
</g>
<g
   id="g23">
</g>
<g
   id="g25">
</g>
<g
   id="g27">
</g>
<g
   id="g29">
</g>
<g
   id="g31">
</g>
<g
   id="g33">
</g>
<g
   id="g35">
</g>
<g
   id="g37">
</g>
<g
   id="g39">
</g>
<g
   id="g41">
</g>
</svg>