<?xml version="1.0" encoding="UTF-8" standalone="no"?>
<!-- Generator: Adobe Illustrator 18.1.1, SVG Export Plug-In . SVG Version: 6.00 Build 0)  -->

<svg
   xmlns:dc="http://purl.org/dc/elements/1.1/"
   xmlns:cc="http://creativecommons.org/ns#"
   xmlns:rdf="http://www.w3.org/1999/02/22-rdf-syntax-ns#"
   xmlns:svg="http://www.w3.org/2000/svg"
   xmlns="http://www.w3.org/2000/svg"
   xmlns:sodipodi="http://sodipodi.sourceforge.net/DTD/sodipodi-0.dtd"
   xmlns:inkscape="http://www.inkscape.org/namespaces/inkscape"
   version="1.1"
   id="Capa_1"
   x="0px"
   y="0px"
   viewBox="0 0 14.171 14.171"
   style="enable-background:new 0 0 14.171 14.171;"
   xml:space="preserve"
   inkscape:version="0.91 r13725"
   sodipodi:docname="vk.svg"><metadata
   id="metadata41"><rdf:RDF><cc:Work
       rdf:about=""><dc:format>image/svg+xml</dc:format><dc:type
         rdf:resource="http://purl.org/dc/dcmitype/StillImage" /></cc:Work></rdf:RDF></metadata><defs
   id="defs39" /><sodipodi:namedview
   pagecolor="#ffffff"
   bordercolor="#666666"
   borderopacity="1"
   objecttolerance="10"
   gridtolerance="10"
   guidetolerance="10"
   inkscape:pageopacity="0"
   inkscape:pageshadow="2"
   inkscape:window-width="1920"
   inkscape:window-height="1026"
   id="namedview37"
   showgrid="false"
   inkscape:zoom="16.65373"
   inkscape:cx="7.0854998"
   inkscape:cy="7.0254532"
   inkscape:window-x="-4"
   inkscape:window-y="-4"
   inkscape:window-maximized="1"
   inkscape:current-layer="Capa_1" />
<g
   id="g3"
   style="fill:#5f769f;fill-opacity:1">
	<path
   style="fill:#5f769f;fill-opacity:1"
   d="M13.268,0H0.905C0.405,0,0,0.405,0,0.904v12.363c0,0.499,0.405,0.904,0.905,0.904h12.362   c0.499,0,0.904-0.405,0.904-0.904V0.904C14.172,0.404,13.767,0,13.268,0z M11.755,8.635c0.259,0.264,0.821,0.707,0.719,1.158   c-0.094,0.414-0.712,0.263-1.312,0.287c-0.685,0.029-1.091,0.044-1.503-0.287C9.465,9.636,9.351,9.45,9.165,9.242   C8.996,9.054,8.783,8.717,8.493,8.73C7.972,8.756,8.135,9.482,7.95,9.977c-2.896,0.456-4.059-1.333-5.085-3.069   C2.368,6.067,1.65,4.261,1.65,4.261l2.048-0.007c0,0,0.657,1.195,0.831,1.503c0.148,0.262,0.311,0.47,0.479,0.704   c0.141,0.194,0.364,0.574,0.608,0.543c0.397-0.051,0.469-1.591,0.223-2.107C5.741,4.688,5.506,4.615,5.263,4.544   C5.345,4.026,7.56,3.918,7.918,4.32c0.52,0.584-0.36,2.21,0.352,2.684c1-0.524,1.854-2.718,1.854-2.718l2.398,0.015   c0,0-0.375,1.186-0.768,1.712c-0.229,0.308-0.989,0.994-0.959,1.503C10.819,7.919,11.437,8.311,11.755,8.635z"
   id="path5" />
</g>
<g
   id="g7">
</g>
<g
   id="g9">
</g>
<g
   id="g11">
</g>
<g
   id="g13">
</g>
<g
   id="g15">
</g>
<g
   id="g17">
</g>
<g
   id="g19">
</g>
<g
   id="g21">
</g>
<g
   id="g23">
</g>
<g
   id="g25">
</g>
<g
   id="g27">
</g>
<g
   id="g29">
</g>
<g
   id="g31">
</g>
<g
   id="g33">
</g>
<g
   id="g35">
</g>
</svg>