<?xml version="1.0" encoding="UTF-8" standalone="no"?>
<!-- Generator: Adobe Illustrator 16.0.0, SVG Export Plug-In . SVG Version: 6.00 Build 0)  -->

<svg
   xmlns:dc="http://purl.org/dc/elements/1.1/"
   xmlns:cc="http://creativecommons.org/ns#"
   xmlns:rdf="http://www.w3.org/1999/02/22-rdf-syntax-ns#"
   xmlns:svg="http://www.w3.org/2000/svg"
   xmlns="http://www.w3.org/2000/svg"
   xmlns:sodipodi="http://sodipodi.sourceforge.net/DTD/sodipodi-0.dtd"
   xmlns:inkscape="http://www.inkscape.org/namespaces/inkscape"
   version="1.1"
   id="Capa_1"
   x="0px"
   y="0px"
   width="16"
   height="16"
   viewBox="0 0 16 16"
   xml:space="preserve"
   inkscape:version="0.91 r13725"
   sodipodi:docname="arrow_up.svg"><metadata
   id="metadata41"><rdf:RDF><cc:Work
       rdf:about=""><dc:format>image/svg+xml</dc:format><dc:type
         rdf:resource="http://purl.org/dc/dcmitype/StillImage" /><dc:title></dc:title></cc:Work></rdf:RDF></metadata><defs
   id="defs39" /><sodipodi:namedview
   pagecolor="#ffffff"
   bordercolor="#666666"
   borderopacity="1"
   objecttolerance="10"
   gridtolerance="10"
   guidetolerance="10"
   inkscape:pageopacity="0"
   inkscape:pageshadow="2"
   inkscape:window-width="1920"
   inkscape:window-height="1026"
   id="namedview37"
   showgrid="false"
   inkscape:zoom="1.9036864"
   inkscape:cx="61.984501"
   inkscape:cy="61.459704"
   inkscape:window-x="-4"
   inkscape:window-y="-4"
   inkscape:window-maximized="1"
   inkscape:current-layer="Capa_1" />
<g
   id="g3"
   transform="matrix(0.12906479,0,0,0.13054269,1.7413815e-5,-0.09164122)">
	<path
   d="m 120.266,95.584 c 5.301,-5.801 4.801,-14.801 -0.8,-20.301 l -47.3,-47.4 c -2.8,-2.8 -6.5,-4.2 -10.2,-4.2 -3.7,0 -7.399,1.4 -10.2,4.2 l -47.299,47.3 c -5.5,5.5 -6.1,14.6 -0.8,20.3 5.6,6.101 15.099,6.3 20.9,0.5 l 30.3,-30.3 c 3.899,-3.9 10.2,-3.9 14.1,0 l 30.3,30.3 c 5.9,5.9 15.4,5.701 20.999,-0.399 z"
   id="path5"
   inkscape:connector-curvature="0" />
</g>
<g
   id="g7"
   transform="translate(0,-107.97)">
</g>
<g
   id="g9"
   transform="translate(0,-107.97)">
</g>
<g
   id="g11"
   transform="translate(0,-107.97)">
</g>
<g
   id="g13"
   transform="translate(0,-107.97)">
</g>
<g
   id="g15"
   transform="translate(0,-107.97)">
</g>
<g
   id="g17"
   transform="translate(0,-107.97)">
</g>
<g
   id="g19"
   transform="translate(0,-107.97)">
</g>
<g
   id="g21"
   transform="translate(0,-107.97)">
</g>
<g
   id="g23"
   transform="translate(0,-107.97)">
</g>
<g
   id="g25"
   transform="translate(0,-107.97)">
</g>
<g
   id="g27"
   transform="translate(0,-107.97)">
</g>
<g
   id="g29"
   transform="translate(0,-107.97)">
</g>
<g
   id="g31"
   transform="translate(0,-107.97)">
</g>
<g
   id="g33"
   transform="translate(0,-107.97)">
</g>
<g
   id="g35"
   transform="translate(0,-107.97)">
</g>
</svg>