<?xml version="1.0" encoding="iso-8859-1"?>
<!-- Generator: Adobe Illustrator 16.0.0, SVG Export Plug-In . SVG Version: 6.00 Build 0)  -->
<!DOCTYPE svg PUBLIC "-//W3C//DTD SVG 1.1//EN" "http://www.w3.org/Graphics/SVG/1.1/DTD/svg11.dtd">
<svg version="1.1" id="Capa_1" xmlns="http://www.w3.org/2000/svg" xmlns:xlink="http://www.w3.org/1999/xlink" x="0px" y="0px"
	 width="922.945px" height="922.945px" viewBox="0 0 922.945 922.945" style="enable-background:new 0 0 922.945 922.945;"
	 xml:space="preserve">
<g>
	<path d="M444.157,374.456H307.576L462.633,28.174C468.557,14.943,458.877,0,444.379,0H165.947c-9.132,0-17.104,6.185-19.373,15.031
		L20.935,504.869c-3.245,12.652,6.311,24.971,19.373,24.971h185.621l-30.285,140.68l-44.476-0.025
		c-14.712-0.008-24.396,15.338-18.061,28.613l40.232,84.311l30.247,63.387l30.899,64.752c7.241,15.174,28.835,15.186,36.092,0.02
		L372.172,699.23c6.35-13.27-3.319-28.623-18.031-28.631l-49.015-0.025l156.276-265.988
		C469.235,391.254,459.621,374.456,444.157,374.456z"/>
	<path d="M901.764,897.043L746.607,387.687c-2.572-8.444-10.361-14.214-19.188-14.214h-77.255h-77.255
		c-8.826,0-16.616,5.77-19.188,14.214L398.563,897.043c-3.927,12.887,5.716,25.902,19.188,25.902h110.835
		c9.332,0,17.432-6.436,19.54-15.527l23.45-101.129h78.588h78.588l23.45,101.129c2.108,9.092,10.208,15.527,19.54,15.527h110.835
		C896.048,922.945,905.691,909.93,901.764,897.043z M650.164,693.857h-52.383l9.299-38.039
		c13.525-52.412,27.051-119.193,40.576-174.141h2.508h2.508c13.525,54.947,27.051,121.729,40.576,174.141l9.299,38.039H650.164z"/>
</g>
<g>
</g>
<g>
</g>
<g>
</g>
<g>
</g>
<g>
</g>
<g>
</g>
<g>
</g>
<g>
</g>
<g>
</g>
<g>
</g>
<g>
</g>
<g>
</g>
<g>
</g>
<g>
</g>
<g>
</g>
</svg>
