<?xml version="1.0" encoding="UTF-8" standalone="no"?>
<!-- Generator: Adobe Illustrator 16.0.0, SVG Export Plug-In . SVG Version: 6.00 Build 0)  -->

<svg
   xmlns:dc="http://purl.org/dc/elements/1.1/"
   xmlns:cc="http://creativecommons.org/ns#"
   xmlns:rdf="http://www.w3.org/1999/02/22-rdf-syntax-ns#"
   xmlns:svg="http://www.w3.org/2000/svg"
   xmlns="http://www.w3.org/2000/svg"
   xmlns:sodipodi="http://sodipodi.sourceforge.net/DTD/sodipodi-0.dtd"
   xmlns:inkscape="http://www.inkscape.org/namespaces/inkscape"
   version="1.1"
   id="Capa_1"
   x="0px"
   y="0px"
   width="276.338px"
   height="276.338px"
   viewBox="0 0 276.338 276.338"
   style="enable-background:new 0 0 276.338 276.338;"
   xml:space="preserve"
   inkscape:version="0.91 r13725"
   sodipodi:docname="daily.svg"><metadata
   id="metadata51"><rdf:RDF><cc:Work
       rdf:about=""><dc:format>image/svg+xml</dc:format><dc:type
         rdf:resource="http://purl.org/dc/dcmitype/StillImage" /></cc:Work></rdf:RDF></metadata><defs
   id="defs49" /><sodipodi:namedview
   pagecolor="#ffffff"
   bordercolor="#666666"
   borderopacity="1"
   objecttolerance="10"
   gridtolerance="10"
   guidetolerance="10"
   inkscape:pageopacity="0"
   inkscape:pageshadow="2"
   inkscape:window-width="1920"
   inkscape:window-height="1026"
   id="namedview47"
   showgrid="false"
   inkscape:zoom="0.85402655"
   inkscape:cx="138.16901"
   inkscape:cy="136.99808"
   inkscape:window-x="-4"
   inkscape:window-y="-4"
   inkscape:window-maximized="1"
   inkscape:current-layer="Capa_1" />
<g
   id="g3"
   style="fill:#999999">
	<g
   id="g5">
		<path
   d="m 267.207,99.838 0,-37.64 0,-4.123 c 0,-21.569 -19.036,-39.141 -42.689,-39.748 l 0,0.005 0,9.549 0,0.009 0,9.6 0,0.019 0,5.454 c 0,13.999 -11.388,25.387 -25.384,25.387 -13.997,0 -25.385,-11.388 -25.385,-25.387 l 0,-5.582 0,-9.558 0,-9.558 -71.98,0 0,9.558 0,9.558 0,5.582 c 0,13.999 -11.388,25.387 -25.386,25.387 -13.997,0 -25.384,-11.388 -25.384,-25.387 l 0,-5.372 0,-0.033 0,-9.631 0,-0.009 0,-9.548 0,-0.01 C 27.737,19.345 9.131,36.756 9.131,58.07 l 0,4.123 0,37.64 0,132.573 c 0,24.218 19.709,43.932 43.929,43.932 l 170.216,0 c 24.217,0 43.927,-19.714 43.927,-43.932 l 0,-132.568 0.004,0 z M 248.09,232.411 c 0,13.684 -11.131,24.811 -24.814,24.811 l -170.211,0 c -13.682,0 -24.812,-11.127 -24.812,-24.811 l 0,-132.573 219.837,0 0,132.573 z"
   id="path7"
   inkscape:connector-curvature="0" />
		<path
   d="m 65.339,11.049 0,7.215 0,9.558 0,9.558 0,5.582 c 0,6.104 4.945,11.049 11.049,11.049 6.102,0 11.049,-4.945 11.049,-11.049 l 0,-5.582 0,-9.558 0,-9.558 0,-7.215 C 87.438,4.945 82.491,0 76.389,0 70.284,0.005 65.339,4.95 65.339,11.049 Z"
   id="path9"
   inkscape:connector-curvature="0" />
		<path
   d="m 199.137,0.005 c -6.104,0 -11.051,4.945 -11.051,11.049 l 0,7.215 0,9.558 0,9.558 0,5.582 c 0,6.104 4.946,11.049 11.051,11.049 6.105,0 11.052,-4.945 11.052,-11.049 l 0,-5.587 0,-9.558 0,-9.558 0,-7.215 C 210.18,4.95 205.238,0.005 199.137,0.005 Z"
   id="path11"
   inkscape:connector-curvature="0" />
		<path
   d="m 106.19,231.87 c 12.463,0 21.875,-3.481 28.238,-10.445 6.352,-6.963 9.535,-15.037 9.535,-24.222 0,-8.737 -2.719,-15.626 -8.163,-20.666 -1.477,-1.354 -2.814,-2.437 -4.009,-3.239 -2.188,-1.475 -2.352,-2.529 -0.292,-4.125 1.157,-0.901 2.294,-1.988 3.407,-3.268 3.794,-4.392 5.691,-9.782 5.691,-16.176 0,-9.026 -3.171,-16.23 -9.532,-21.597 -6.361,-5.367 -14.725,-8.048 -25.095,-8.048 -5.582,0 -10.296,0.674 -14.137,2.021 -3.839,1.349 -7.15,3.292 -9.945,5.841 -3.739,3.594 -6.48,7.512 -8.23,11.759 -1.15,3.388 -1.949,6.921 -2.39,10.584 -0.315,2.623 1.769,4.761 4.406,4.761 l 10.356,0 c 2.64,0 4.674,-2.156 5.057,-4.77 0.465,-3.174 1.505,-5.853 3.116,-8.032 2.366,-3.192 6.065,-4.793 11.093,-4.793 4.383,0 7.775,1.297 10.193,3.893 2.408,2.595 3.619,5.964 3.619,10.108 0,6.395 -2.366,10.637 -7.089,12.732 -2.053,0.933 -5.29,1.544 -9.696,1.838 -2.632,0.168 -4.774,2.324 -4.774,4.957 l 0,5.717 c 0,2.637 2.147,4.756 4.784,4.9 4.669,0.248 8.254,0.878 10.744,1.899 5.773,2.399 8.66,7.169 8.66,14.3 0,5.396 -1.559,9.521 -4.669,12.396 -3.11,2.87 -6.763,4.303 -10.944,4.303 -6.823,0 -11.532,-2.618 -14.118,-7.859 -0.845,-1.731 -1.433,-3.733 -1.767,-6.011 -0.383,-2.614 -2.462,-4.771 -5.106,-4.771 l -11.407,0 c -2.639,0 -4.718,2.138 -4.427,4.761 0.714,6.478 2.343,11.878 4.879,16.194 5.979,10.041 16.653,15.058 32.012,15.058 z"
   id="path13"
   inkscape:connector-curvature="0" />
		<path
   d="m 165.582,154.303 15.976,0 c 2.637,0 4.778,2.138 4.778,4.779 l 0,65.312 c 0,2.637 2.143,4.779 4.779,4.779 l 12.308,0 c 2.637,0 4.778,-2.143 4.778,-4.779 l 0,-99.005 c 0,-2.637 -2.142,-4.779 -4.778,-4.779 l -8.266,0 c -2.637,0 -4.812,0.994 -5.064,2.188 -0.135,0.63 -0.312,1.349 -0.541,2.151 -0.942,3.244 -2.343,5.839 -4.182,7.785 -2.688,2.842 -6.175,4.739 -10.454,5.691 -1.997,0.448 -5.115,0.808 -9.344,1.092 -2.632,0.168 -4.77,2.399 -4.77,5.031 l 0,4.966 c 0,2.647 2.147,4.789 4.78,4.789 z"
   id="path15"
   inkscape:connector-curvature="0" />
	</g>
</g>
<g
   id="g17">
</g>
<g
   id="g19">
</g>
<g
   id="g21">
</g>
<g
   id="g23">
</g>
<g
   id="g25">
</g>
<g
   id="g27">
</g>
<g
   id="g29">
</g>
<g
   id="g31">
</g>
<g
   id="g33">
</g>
<g
   id="g35">
</g>
<g
   id="g37">
</g>
<g
   id="g39">
</g>
<g
   id="g41">
</g>
<g
   id="g43">
</g>
<g
   id="g45">
</g>
</svg>