<?xml version="1.0" encoding="UTF-8" standalone="no"?>
<!-- Generator: Adobe Illustrator 16.0.0, SVG Export Plug-In . SVG Version: 6.00 Build 0)  -->

<svg
   xmlns:dc="http://purl.org/dc/elements/1.1/"
   xmlns:cc="http://creativecommons.org/ns#"
   xmlns:rdf="http://www.w3.org/1999/02/22-rdf-syntax-ns#"
   xmlns:svg="http://www.w3.org/2000/svg"
   xmlns="http://www.w3.org/2000/svg"
   xmlns:sodipodi="http://sodipodi.sourceforge.net/DTD/sodipodi-0.dtd"
   xmlns:inkscape="http://www.inkscape.org/namespaces/inkscape"
   version="1.1"
   id="Capa_1"
   x="0px"
   y="0px"
   width="612.004px"
   height="612.004px"
   viewBox="0 0 612.004 612.004"
   style="enable-background:new 0 0 612.004 612.004;"
   xml:space="preserve"
   inkscape:version="0.91 r13725"
   sodipodi:docname="game-red.svg"><metadata
   id="metadata44"><rdf:RDF><cc:Work
       rdf:about=""><dc:format>image/svg+xml</dc:format><dc:type
         rdf:resource="http://purl.org/dc/dcmitype/StillImage" /><dc:title></dc:title></cc:Work></rdf:RDF></metadata><defs
   id="defs42" /><sodipodi:namedview
   pagecolor="#ffffff"
   bordercolor="#666666"
   borderopacity="1"
   objecttolerance="10"
   gridtolerance="10"
   guidetolerance="10"
   inkscape:pageopacity="0"
   inkscape:pageshadow="2"
   inkscape:window-width="1920"
   inkscape:window-height="1026"
   id="namedview40"
   showgrid="false"
   inkscape:zoom="0.38561838"
   inkscape:cx="306.00201"
   inkscape:cy="303.40878"
   inkscape:window-x="-4"
   inkscape:window-y="-4"
   inkscape:window-maximized="1"
   inkscape:current-layer="Capa_1" />
<g
   id="g3"
   style="fill:#ff0000">
	<g
   id="Game_Pad">
		<g
   id="g6">
			<path
   d="M 599.056,276.646 C 569.037,139.071 526.71,105.153 500.94,91.551 459.663,69.767 411.811,82.443 395.936,90.659 c -18.025,9.284 -30.193,26.959 -48.516,34.634 -21.173,8.829 -49.968,11.224 -71.629,0.56 C 258.535,117.339 243.307,99.156 222.397,91.114 195.892,80.886 151.747,66.55 108.039,97.88 97.706,105.293 24.015,167.078 1.881,360.092 -11.773,479.103 53.474,517.39 51.079,515.66 c 16.784,12.029 54.373,32.361 105.302,0.508 34.04,-21.277 61.663,-63.307 61.663,-63.307 0,0 12.308,-23.375 28.655,-33.307 11.574,-7.045 28.882,-1.695 28.882,-1.695 l 61.245,0 c 0,0 19.441,-2.447 33.096,3.584 13.252,5.787 20.734,20.07 20.734,20.07 0,0 40.369,52.17 79.06,78.762 16.469,11.295 82.661,24.303 116.84,-17.447 22.325,-27.327 37.553,-111.334 12.5,-226.182 z M 271.875,264.461 c 0,10.455 -8.305,18.917 -18.55,18.917 l -46.4,0 0,47.362 c 0,10.473 -8.305,18.951 -18.55,18.951 l -13.917,0 c -10.245,0 -18.549,-8.461 -18.549,-18.951 l 0,-47.362 -46.419,0 c -10.245,0 -18.55,-8.445 -18.55,-18.917 l 0,-14.196 c 0,-10.473 8.305,-18.952 18.55,-18.952 l 46.4,0 0,-47.31 c 0,-10.455 8.305,-18.952 18.55,-18.952 l 13.917,0 c 10.245,0 18.55,8.479 18.55,18.952 l 0,47.327 46.4,0 c 10.245,0 18.55,8.462 18.55,18.952 l 0,14.179 0.018,0 z m 130.687,66.261 c -19.214,0 -34.791,-15.875 -34.791,-35.508 0,-19.599 15.577,-35.491 34.791,-35.491 19.214,0 34.792,15.875 34.792,35.491 0.017,19.633 -15.579,35.508 -34.792,35.508 z m 63.796,-78.867 c -19.005,0 -34.407,-15.717 -34.407,-35.124 0,-19.354 15.402,-35.071 34.407,-35.071 19.004,0 34.406,15.718 34.406,35.071 10e-4,19.407 -15.402,35.124 -34.406,35.124 z"
   id="path8"
   inkscape:connector-curvature="0" />
		</g>
	</g>
</g>
<g
   id="g10">
</g>
<g
   id="g12">
</g>
<g
   id="g14">
</g>
<g
   id="g16">
</g>
<g
   id="g18">
</g>
<g
   id="g20">
</g>
<g
   id="g22">
</g>
<g
   id="g24">
</g>
<g
   id="g26">
</g>
<g
   id="g28">
</g>
<g
   id="g30">
</g>
<g
   id="g32">
</g>
<g
   id="g34">
</g>
<g
   id="g36">
</g>
<g
   id="g38">
</g>
</svg>