<?xml version="1.0" encoding="UTF-8" standalone="no"?>
<!-- Generator: Adobe Illustrator 16.0.0, SVG Export Plug-In . SVG Version: 6.00 Build 0)  -->

<svg
   xmlns:dc="http://purl.org/dc/elements/1.1/"
   xmlns:cc="http://creativecommons.org/ns#"
   xmlns:rdf="http://www.w3.org/1999/02/22-rdf-syntax-ns#"
   xmlns:svg="http://www.w3.org/2000/svg"
   xmlns="http://www.w3.org/2000/svg"
   xmlns:sodipodi="http://sodipodi.sourceforge.net/DTD/sodipodi-0.dtd"
   xmlns:inkscape="http://www.inkscape.org/namespaces/inkscape"
   version="1.1"
   id="Capa_1"
   x="0px"
   y="0px"
   width="401.601px"
   height="401.6px"
   viewBox="0 0 401.601 401.6"
   style="enable-background:new 0 0 401.601 401.6;"
   xml:space="preserve"
   inkscape:version="0.91 r13725"
   sodipodi:docname="pat.svg"><metadata
   id="metadata57"><rdf:RDF><cc:Work
       rdf:about=""><dc:format>image/svg+xml</dc:format><dc:type
         rdf:resource="http://purl.org/dc/dcmitype/StillImage" /></cc:Work></rdf:RDF></metadata><defs
   id="defs55" /><sodipodi:namedview
   pagecolor="#ffffff"
   bordercolor="#666666"
   borderopacity="1"
   objecttolerance="10"
   gridtolerance="10"
   guidetolerance="10"
   inkscape:pageopacity="0"
   inkscape:pageshadow="2"
   inkscape:window-width="1920"
   inkscape:window-height="1026"
   id="namedview53"
   showgrid="false"
   inkscape:zoom="0.58764939"
   inkscape:cx="200.80051"
   inkscape:cy="199.09831"
   inkscape:window-x="-4"
   inkscape:window-y="-4"
   inkscape:window-maximized="1"
   inkscape:current-layer="Capa_1" />
<g
   id="g3"
   style="fill:#999999">
	<g
   id="g5">
		<path
   d="m 116.682,229.329 c 11.286,0 22.195,-0.729 32.518,-2.086 l 0,-113.149 c -10.322,-1.356 -21.232,-2.085 -32.518,-2.085 -64.441,0 -116.681,23.693 -116.681,52.921 l 0,11.477 c 0,29.227 52.24,52.922 116.681,52.922 z"
   id="path7"
   inkscape:connector-curvature="0" />
		<path
   d="m 116.682,288.411 c 11.286,0 22.195,-0.729 32.518,-2.084 l 0,-33.166 c -10.325,1.356 -21.229,2.095 -32.518,2.095 -56.25,0 -103.199,-18.054 -114.227,-42.082 -1.606,3.5 -2.454,7.124 -2.454,10.839 l 0,11.477 c 0,29.228 52.24,52.921 116.681,52.921 z"
   id="path9"
   inkscape:connector-curvature="0" />
		<path
   d="m 149.199,314.823 0,-2.578 c -10.325,1.356 -21.229,2.095 -32.518,2.095 C 60.431,314.34 13.482,296.286 2.454,272.258 0.848,275.757 0,279.381 0,283.096 l 0,11.477 c 0,29.229 52.24,52.922 116.681,52.922 12.887,0 25.282,-0.95 36.873,-2.7 -2.873,-5.877 -4.355,-12.075 -4.355,-18.496 l 0,-11.476 z"
   id="path11"
   inkscape:connector-curvature="0" />
		<path
   d="m 284.92,22.379 c -64.441,0 -116.681,23.693 -116.681,52.921 l 0,11.477 c 0,29.228 52.24,52.921 116.681,52.921 64.44,0 116.681,-23.693 116.681,-52.921 l 0,-11.477 c 0,-29.228 -52.241,-52.921 -116.681,-52.921 z"
   id="path13"
   inkscape:connector-curvature="0" />
		<path
   d="m 284.92,165.626 c -56.25,0 -103.199,-18.053 -114.227,-42.082 -1.606,3.499 -2.454,7.123 -2.454,10.839 l 0,11.477 c 0,29.228 52.24,52.921 116.681,52.921 64.44,0 116.681,-23.693 116.681,-52.921 l 0,-11.477 c 0,-3.716 -0.848,-7.34 -2.454,-10.839 -11.028,24.029 -57.977,42.082 -114.227,42.082 z"
   id="path15"
   inkscape:connector-curvature="0" />
		<path
   d="m 284.92,224.71 c -56.25,0 -103.199,-18.054 -114.227,-42.082 -1.606,3.499 -2.454,7.123 -2.454,10.839 l 0,11.477 c 0,29.229 52.24,52.922 116.681,52.922 64.44,0 116.681,-23.693 116.681,-52.922 l 0,-11.477 c 0,-3.716 -0.848,-7.34 -2.454,-10.839 -11.028,24.029 -57.977,42.082 -114.227,42.082 z"
   id="path17"
   inkscape:connector-curvature="0" />
		<path
   d="m 284.92,286.983 c -56.25,0 -103.199,-18.054 -114.227,-42.082 -1.606,3.5 -2.454,7.123 -2.454,10.838 l 0,11.478 c 0,29.228 52.24,52.921 116.681,52.921 64.44,0 116.681,-23.693 116.681,-52.921 l 0,-11.478 c 0,-3.715 -0.848,-7.34 -2.454,-10.838 -11.028,24.027 -57.977,42.082 -114.227,42.082 z"
   id="path19"
   inkscape:connector-curvature="0" />
		<path
   d="m 284.92,346.066 c -56.25,0 -103.199,-18.053 -114.227,-42.081 -1.606,3.5 -2.454,7.125 -2.454,10.838 l 0,11.477 c 0,29.228 52.24,52.921 116.681,52.921 64.44,0 116.681,-23.693 116.681,-52.921 l 0,-11.478 c 0,-3.715 -0.848,-7.34 -2.454,-10.838 -11.028,24.028 -57.977,42.082 -114.227,42.082 z"
   id="path21"
   inkscape:connector-curvature="0" />
	</g>
</g>
<g
   id="g23">
</g>
<g
   id="g25">
</g>
<g
   id="g27">
</g>
<g
   id="g29">
</g>
<g
   id="g31">
</g>
<g
   id="g33">
</g>
<g
   id="g35">
</g>
<g
   id="g37">
</g>
<g
   id="g39">
</g>
<g
   id="g41">
</g>
<g
   id="g43">
</g>
<g
   id="g45">
</g>
<g
   id="g47">
</g>
<g
   id="g49">
</g>
<g
   id="g51">
</g>
</svg>