<?xml version="1.0" encoding="UTF-8" standalone="no"?>
<!-- Generator: Adobe Illustrator 16.0.0, SVG Export Plug-In . SVG Version: 6.00 Build 0)  -->

<svg
   xmlns:dc="http://purl.org/dc/elements/1.1/"
   xmlns:cc="http://creativecommons.org/ns#"
   xmlns:rdf="http://www.w3.org/1999/02/22-rdf-syntax-ns#"
   xmlns:svg="http://www.w3.org/2000/svg"
   xmlns="http://www.w3.org/2000/svg"
   xmlns:sodipodi="http://sodipodi.sourceforge.net/DTD/sodipodi-0.dtd"
   xmlns:inkscape="http://www.inkscape.org/namespaces/inkscape"
   version="1.1"
   id="Capa_1"
   x="0px"
   y="0px"
   width="32px"
   height="32px"
   viewBox="0 0 180.47 180.47"
   style="enable-background:new 0 0 180.47 180.47;"
   xml:space="preserve"
   inkscape:version="0.91 r13725"
   sodipodi:docname="quest-red.svg"><metadata
   id="metadata41"><rdf:RDF><cc:Work
       rdf:about=""><dc:format>image/svg+xml</dc:format><dc:type
         rdf:resource="http://purl.org/dc/dcmitype/StillImage" /><dc:title></dc:title></cc:Work></rdf:RDF></metadata><defs
   id="defs39" /><sodipodi:namedview
   pagecolor="#ffffff"
   bordercolor="#666666"
   borderopacity="1"
   objecttolerance="10"
   gridtolerance="10"
   guidetolerance="10"
   inkscape:pageopacity="0"
   inkscape:pageshadow="2"
   inkscape:window-width="1920"
   inkscape:window-height="1026"
   id="namedview37"
   showgrid="false"
   inkscape:zoom="7.375"
   inkscape:cx="16"
   inkscape:cy="15.864407"
   inkscape:window-x="-4"
   inkscape:window-y="-4"
   inkscape:window-maximized="1"
   inkscape:current-layer="Capa_1" />
<g
   id="g3">
	<path
   d="M130.475,93.383L130.475,93.383c0,0,0,0,0,0.013l0,0l0,0c0,0.012,0,0.012,0,0.023l0,0c0,0,0,0.013,0,0.019   c0,0.073,0,0.152-0.013,0.226c-0.012,2.874-2.058,7.594-9.383,8.318c0,0.055,0,0.104,0,0.158c0,0.316,0.03,0.67,0.079,1.084   l0.115,6.648c0,0.062,0,0.109,0,0.158c0,0.086,0,0.171,0,0.256c-0.012,0.171-0.036,0.329-0.079,0.487   c-0.177,0.816-0.828,2.606-3.13,4.08c0.183,0.56,0.323,1.248,0.323,2.063c0,2.034-0.834,4.221-2.454,6.492   c-1.188,1.613-1.699,2.368-1.699,3.58c0,0.486,0.086,1.035,0.256,1.619c0.073,0.372,0.457,2.49,0.457,4.945   c0,4.055-1.06,6.874-3.167,8.359c-1.218,1.121-4.907,3.617-13.518,3.63l0,0l0,0c-1.954,0-4.22-0.134-6.805-0.451   c-0.006,0-0.036,0-0.036,0l-0.095-0.012h-0.036c-0.062-0.013-0.125-0.024-0.18-0.024c-0.07-0.012-0.144-0.012-0.22-0.024   c0,0-0.03-0.013-0.049-0.013c-0.006,0-0.018,0-0.018,0c-0.01-0.012-0.082,0-0.113-0.012c-0.006,0-0.018,0-0.027,0   c-0.006,0-0.012,0-0.018,0c-0.007,0-0.037,0-0.037,0s-0.018,0-0.024-0.012l0,0c-0.012,0-0.03,0-0.046,0l-1.314-0.195   c-1.906-0.292-4.071-0.615-6.248-0.615l0,0c-3.97,0-6.759,1.103-8.759,3.477c-5.088,9.694-13.25,26.221-13.917,30.215   c-0.262,1.51-1.577,2.594-3.075,2.594c-0.167,0-0.35-0.012-0.523-0.049c-1.522-0.256-2.6-1.57-2.6-3.068   c0-0.171,0.012-0.354,0.042-0.523c1.06-6.284,13.165-29.436,14.678-32.297c0.052-0.104,0.107-0.195,0.165-0.293   c0.067-0.115,0.143-0.207,0.222-0.311c0.006-0.012,0.019-0.023,0.019-0.023c3.194-3.946,7.815-5.956,13.743-5.956l0,0l0,0l0,0   c2.64,0,5.151,0.384,7.17,0.677l1.297,0.182c0.016,0,0.016,0,0.027,0c0.024,0,0.024,0.013,0.03,0.013c0,0,0.007,0,0.013,0h0.012   c0.043,0,0.082,0,0.119,0.013c0.024,0,0.043,0,0.061,0c0.064,0.012,0.125,0.023,0.183,0.023c0.062,0.013,0.125,0.013,0.187,0.024   c0.03,0,0.058,0,0.082,0c0.012,0.013,0.018,0,0.036,0.013c0.22,0.03,0.43,0.055,0.643,0.079c2.04,0.219,3.83,0.322,5.413,0.322l0,0   c6.747,0,9.03-1.753,9.262-1.942c0.012-0.03,0.036-0.043,0.049-0.066c0.055-0.049,0.091-0.098,0.134-0.141   c0.146-0.14,0.316-0.279,0.475-0.383c0.146-0.269,0.524-1.121,0.524-3.216c0-1.839-0.293-3.446-0.305-3.531   c-0.256-0.853-0.414-1.967-0.414-3.026c0-3.337,1.559-5.443,2.582-6.826c1.474-2.059,1.57-2.99,1.57-3.252   c0-0.098-0.012-0.146-0.012-0.146c-0.658-0.78-1.072-1.863-1.072-2.983c0-1.547,0.78-2.497,1.121-2.838   c0.347-0.354,0.767-0.609,1.229-0.768c0.938-0.316,1.413-0.633,1.62-0.828l-0.073-5.699c-0.073-0.354-0.109-0.975-0.109-1.522   c0-4.555,2.679-6.102,4.263-6.296c3.738-0.098,5.041-1.218,5.114-2.253l0,0c0-0.049,0-0.085,0-0.128l0,0   c-0.329-2.089-4.859-11.031-8.938-18.216c-1.358-2.6-2.021-5.124-2.021-7.618c0-3.772,1.455-6.783,2.637-9.209   c0.639-1.315,1.235-2.558,1.321-3.386c0.219-2.308,0.328-4.503,0.328-6.61c0-5.956-0.901-11.311-2.643-16.349   c-1.437,11.767-9.097,19.747-15.32,26.792c-6.54,7.265-9.453,14.349-9.265,22.523v3.267H66.344l-0.362-4.728   c-0.362-9.259,2.545-18.706,10.72-28.333c5.812-6.902,10.531-12.894,10.531-19.071c0-6.181-4.177-10.534-13.083-10.72   c-6.171,0-13.256,1.994-18.164,5.27L49.995,7.447C56.538,3.629,67.248,0,80.331,0c12.4,0,21.275,3.647,26.999,9.209   c0.263,0.143,0.518,0.287,0.731,0.518c6.746,7.115,15.722,18.861,15.722,38.672c0,2.296-0.121,4.694-0.365,7.207   c-0.183,1.945-1.06,3.754-1.912,5.507c-0.986,2.04-2.009,4.147-2.009,6.491c0,1.501,0.407,3.018,1.254,4.637   C124.343,78.559,130.396,89.767,130.475,93.383z M77.797,126.453c9.81,0,16.161-7.081,16.161-16.52   c-0.183-9.804-6.54-16.526-16.347-16.526c-9.447,0-16.164,6.723-16.164,16.526c0,9.45,6.537,16.52,16.164,16.52H77.797z"
   fill="#000000"
   id="path5" />
</g>
<g
   id="g7">
</g>
<g
   id="g9">
</g>
<g
   id="g11">
</g>
<g
   id="g13">
</g>
<g
   id="g15">
</g>
<g
   id="g17">
</g>
<g
   id="g19">
</g>
<g
   id="g21">
</g>
<g
   id="g23">
</g>
<g
   id="g25">
</g>
<g
   id="g27">
</g>
<g
   id="g29">
</g>
<g
   id="g31">
</g>
<g
   id="g33">
</g>
<g
   id="g35">
</g>
<path
   style="fill:#ff0000;fill-opacity:1"
   d="m 9.787119,31.711986 c -0.2544045,-0.306538 0.052726,-1.159524 1.441899,-4.004549 0.953573,-1.952914 1.186351,-2.326023 1.6374,-2.624514 0.694114,-0.459342 1.617032,-0.619977 2.734052,-0.475864 1.373581,0.177212 2.687099,0.147433 3.21437,-0.07287 l 0.473927,-0.198019 -0.01964,-1.152716 c -0.01722,-1.011121 0.0228,-1.22513 0.325842,-1.74223 0.269589,-0.460019 0.329567,-0.708142 0.273042,-1.129562 -0.06488,-0.483703 -0.03544,-0.556902 0.282109,-0.701589 0.338352,-0.154164 0.353352,-0.205881 0.328463,-1.132438 -0.02325,-0.865471 0.0077,-0.998224 0.284721,-1.222568 0.170941,-0.138419 0.479622,-0.251672 0.685957,-0.251672 0.206336,0 0.454301,-0.09536 0.551034,-0.21192 0.148882,-0.179393 0.02255,-0.517484 -0.823032,-2.202623 -1.160903,-2.313531 -1.216219,-2.683391 -0.612283,-4.093932 0.354333,-0.8275743 0.372544,-0.9640964 0.298424,-2.2372879 -0.07905,-1.357839 -0.403324,-2.8910785 -0.530538,-2.5084746 -0.03719,0.1118644 -0.168722,0.5499115 -0.292283,0.9734377 -0.266492,0.9134472 -0.951117,1.9734803 -2.173643,3.3655458 -1.175169,1.338138 -1.691585,2.383253 -1.870629,3.785743 l -0.139868,1.095613 -2.016359,0 -2.01636,0 0,-1.070463 c 0,-1.86107 0.56472,-3.160802 2.303848,-5.3024188 1.739021,-2.1414868 1.825005,-3.9307516 0.218378,-4.5443278 -0.865381,-0.3304922 -2.437932,-0.2268678 -3.573074,0.2354503 -0.466101,0.189833 -0.8474573,0.3296036 -0.8474573,0.3106011 0,-0.019002 -0.2133727,-0.7288587 -0.4741616,-1.5774587 -0.260789,-0.8486 -0.4743483,-1.580339 -0.4745763,-1.6260868 -7.523e-4,-0.150921 1.5547062,-0.78445974 2.4461802,-0.99632995 2.25294,-0.53543985 4.674782,-0.37601999 6.288041,0.41391566 1.476561,0.72300119 3.028229,2.70147209 3.698406,4.71569049 0.32393,0.9735716 0.36761,1.316425 0.373663,2.9329524 0.0062,1.6463601 -0.02384,1.8879381 -0.29823,2.4013781 -0.499378,0.934427 -0.41686,1.379987 0.644068,3.477704 0.522033,1.03219 0.949152,2.049007 0.949152,2.259596 0,0.531649 -0.588156,1.188118 -1.160716,1.295531 l -0.466403,0.0875 0,0.847979 c 0,0.642666 -0.06566,0.931454 -0.271186,1.192738 -0.149153,0.189616 -0.271186,0.512823 -0.271186,0.718237 0,0.205415 -0.150039,0.629503 -0.33342,0.942418 -0.286593,0.489033 -0.330174,0.721186 -0.310309,1.652967 0.02624,1.230645 -0.149293,1.63547 -0.882972,2.036387 -0.376813,0.20591 -0.806366,0.24011 -3.015672,0.24011 -1.906583,0 -2.659352,0.04732 -2.895878,0.182034 -0.336384,0.191591 -2.234903,3.918662 -2.709762,5.319661 -0.267792,0.79008 -0.629062,1.011566 -0.973343,0.596732 z"
   id="path4169"
   inkscape:connector-curvature="0"
   transform="scale(5.6396875,5.6396875)" /><path
   style="fill:#ff0000;fill-opacity:1"
   d="m 12.569492,22.10163 c -0.536123,-0.236286 -1.145628,-0.856455 -1.374916,-1.39897 -0.264495,-0.62582 -0.227296,-1.896794 0.075,-2.562469 0.871768,-1.919691 3.974329,-2.002647 4.93978,-0.132079 0.340265,0.659265 0.444218,1.787284 0.22572,2.44934 -0.212633,0.644283 -0.892323,1.416895 -1.45233,1.650881 -0.554504,0.231686 -1.880717,0.228003 -2.413253,-0.0067 z"
   id="path4171"
   inkscape:connector-curvature="0"
   transform="scale(5.6396875,5.6396875)" /></svg>