<?xml version="1.0" encoding="UTF-8" standalone="no"?>
<!-- Generator: Adobe Illustrator 16.0.0, SVG Export Plug-In . SVG Version: 6.00 Build 0)  -->

<svg
   xmlns:dc="http://purl.org/dc/elements/1.1/"
   xmlns:cc="http://creativecommons.org/ns#"
   xmlns:rdf="http://www.w3.org/1999/02/22-rdf-syntax-ns#"
   xmlns:svg="http://www.w3.org/2000/svg"
   xmlns="http://www.w3.org/2000/svg"
   xmlns:sodipodi="http://sodipodi.sourceforge.net/DTD/sodipodi-0.dtd"
   xmlns:inkscape="http://www.inkscape.org/namespaces/inkscape"
   version="1.1"
   id="Capa_1"
   x="0px"
   y="0px"
   width="950.232px"
   height="950.233px"
   viewBox="0 0 950.232 950.233"
   style="enable-background:new 0 0 950.232 950.233;"
   xml:space="preserve"
   inkscape:version="0.91 r13725"
   sodipodi:docname="cup.svg"><metadata
   id="metadata43"><rdf:RDF><cc:Work
       rdf:about=""><dc:format>image/svg+xml</dc:format><dc:type
         rdf:resource="http://purl.org/dc/dcmitype/StillImage" /></cc:Work></rdf:RDF></metadata><defs
   id="defs41" /><sodipodi:namedview
   pagecolor="#ffffff"
   bordercolor="#666666"
   borderopacity="1"
   objecttolerance="10"
   gridtolerance="10"
   guidetolerance="10"
   inkscape:pageopacity="0"
   inkscape:pageshadow="2"
   inkscape:window-width="1920"
   inkscape:window-height="1026"
   id="namedview39"
   showgrid="false"
   inkscape:zoom="0.24836015"
   inkscape:cx="475.116"
   inkscape:cy="471.09007"
   inkscape:window-x="-4"
   inkscape:window-y="-4"
   inkscape:window-maximized="1"
   inkscape:current-layer="Capa_1" />
<g
   id="g3"
   style="fill:#999999">
	<g
   id="g5">
		<path
   d="m 946.029,122.516 c -2.602,-3.9 -7,-6.6 -13.201,-6.6 l -126.199,0 c -4.9,-33.1 -11.9,-57.2 -14.801,-66.3 3.201,-3.5 6.4,-6.9 9.6,-10.3 5.102,-5.4 5.4,-13.9 0,-19.3 -1.699,-1.7 -3.799,-2.8 -6.1,-3.5 -1.799,-0.9 -3.9,-1.5 -6.299,-1.5 l -628.101,0 c -2.5,0 -4.6,0.5 -6.3,1.5 -2.3,0.6 -4.4,1.8 -6.1,3.5 -5.4,5.4 -5.1,13.9 0,19.3 3.2,3.4 6.4,6.9 9.6,10.3 -2.9,9.1 -9.8,33.1 -14.8,66.3 l -125.8,0 c -5.6,0 -9.7,2.2 -12.4,5.5 -3.3,3.1 -5.4,7.3 -5.1,11.9 6.4,85.7 39.4,167.1 93.6,233.7 57,70 136.2,120.899 223.2,144.1 -4.101,15 -5.9,38.7 18.5,48.601 16.6,6.8 34.899,14.8 47,28.5 12.899,14.6 8.2,30.8 -5,43.399 -5,4.8 -6.601,9.101 -5,15.9 l 33.2,186.899 -31.7,0 c -6.101,0 -15.601,2.4 -21,5.4 l -58.601,32.1 c -5.399,3 -9.8,10.4 -9.8,16.5 l 0,35.601 c 0,6.2 5,11.2 11.2,11.2 l 359,0 c 6.2,0 11.2,-5 11.2,-11.2 l -0.101,-36 c 0,-6.601 -3.699,-12.7 -9.5,-15.9 -14.899,-8.2 -43.899,-24 -59,-32.3 -5.399,-3 -14.8,-5.4 -21,-5.4 l -31.5,0 c 0,0 33.101,-186.1 33.2,-186.899 0.9,-5 1.2,-9.5 -2.3,-13.5 -3.6,-4.101 -7.8,-7.3 -10.8,-11.9 -4.3,-6.7 -6.4,-14.5 -3.9,-22.2 5.2,-16.3 24.101,-26.3 38.3,-33.199 5.101,-2.5 10.4,-4.801 15.7,-7 24.3,-9.9 22.5,-33.601 18.5,-48.601 86.999,-23.3 166.2,-74.1 223.2,-144.1 54.199,-66.6 87.199,-148 93.6,-233.7 0.102,-4.001 -1.597,-7.801 -4.197,-10.801 z m -743.3,291.8 c -17.5,-11.6 -28.2,-19.9 -43.7,-33.8 -9.4,-8.5 -18.5,-17.3 -27.2,-26.6 -4.5,-4.8 -8.9,-9.7 -13.1,-14.7 -2,-2.3 -3.9,-4.6 -5.8,-7 -1,-1.2 -1.9,-2.4 -2.8,-3.5 -0.1,-0.2 -1.3,-1.7 -1.7,-2.2 -15.1,-19.8 -28.5,-40.9 -39.7,-63.1 -3,-5.9 -5.8,-11.8 -8.5,-17.8 -0.6,-1.4 -1.2,-2.8 -1.8,-4.2 -0.1,-0.2 -1,-2.5 -1.2,-2.8 -1,-2.4 -2,-4.8 -2.9,-7.3 -4.6,-11.9 -8.7,-23.9 -12.1,-36.1 -3.4,-12.3 -6.4,-24.8 -8.6,-37.4 -0.5,-2.8 -0.9,-5.6 -1.4,-8.4 l 102.2,0 c -4.8,86.3 12.2,204.2 115.3,291.7 -16.301,-7.9 -32,-16.8 -47,-26.8 z m 427.8,-204.4 -91.5,66.5 35,107.6 c 2.5,7.6 -0.801,9.899 -7.2,5.2 l -91.5,-66.5 -91.601,66.6 c -6.399,4.7 -9.699,2.3 -7.199,-5.2 l 35,-107.6 -91.5,-66.5 c -6.4,-4.7 -5.2,-8.5 2.8,-8.5 l 113.2,0 35,-107.6 c 2.5,-7.6 6.4,-7.6 8.9,0 l 35,107.6 113.2,0 c 7.6,-0.1 8.9,3.7 2.4,8.4 z m 277.1,-52.1 c -2.201,12.6 -5.1,25.1 -8.6,37.4 -3.4,12.2 -7.5,24.3 -12.102,36.1 -0.898,2.4 -1.898,4.9 -2.898,7.3 -0.102,0.3 -1.102,2.6 -1.201,2.8 -0.6,1.4 -1.199,2.8 -1.799,4.2 -2.701,6 -5.5,11.9 -8.5,17.8 -11.201,22.2 -24.602,43.3 -39.701,63.1 -0.4,0.5 -1.6,2.1 -1.699,2.2 -0.9,1.2 -1.9,2.4 -2.801,3.5 -1.9,2.4 -3.799,4.7 -5.799,7 -4.201,5 -8.602,9.9 -13.102,14.7 -8.6,9.3 -17.699,18.1 -27.199,26.6 -15.5,13.899 -26.301,22.1 -43.699,33.8 -15,10 -30.701,18.9 -46.9,26.9 103,-87.601 120,-205.5 115.1,-291.8 l 102.199,0 c -0.399,2.8 -0.899,5.6 -1.299,8.4 z"
   id="path7"
   inkscape:connector-curvature="0" />
	</g>
</g>
<g
   id="g9">
</g>
<g
   id="g11">
</g>
<g
   id="g13">
</g>
<g
   id="g15">
</g>
<g
   id="g17">
</g>
<g
   id="g19">
</g>
<g
   id="g21">
</g>
<g
   id="g23">
</g>
<g
   id="g25">
</g>
<g
   id="g27">
</g>
<g
   id="g29">
</g>
<g
   id="g31">
</g>
<g
   id="g33">
</g>
<g
   id="g35">
</g>
<g
   id="g37">
</g>
</svg>