<?xml version="1.0" encoding="UTF-8" standalone="no"?>
<!-- Generator: Adobe Illustrator 16.0.0, SVG Export Plug-In . SVG Version: 6.00 Build 0)  -->

<svg
   xmlns:dc="http://purl.org/dc/elements/1.1/"
   xmlns:cc="http://creativecommons.org/ns#"
   xmlns:rdf="http://www.w3.org/1999/02/22-rdf-syntax-ns#"
   xmlns:svg="http://www.w3.org/2000/svg"
   xmlns="http://www.w3.org/2000/svg"
   xmlns:sodipodi="http://sodipodi.sourceforge.net/DTD/sodipodi-0.dtd"
   xmlns:inkscape="http://www.inkscape.org/namespaces/inkscape"
   version="1.1"
   id="Capa_1"
   x="0px"
   y="0px"
   width="31.398px"
   height="31.398px"
   viewBox="0 0 31.398 31.398"
   style="enable-background:new 0 0 31.398 31.398;"
   xml:space="preserve"
   inkscape:version="0.91 r13725"
   sodipodi:docname="share2.svg"><metadata
   id="metadata41"><rdf:RDF><cc:Work
       rdf:about=""><dc:format>image/svg+xml</dc:format><dc:type
         rdf:resource="http://purl.org/dc/dcmitype/StillImage" /><dc:title></dc:title></cc:Work></rdf:RDF></metadata><defs
   id="defs39" /><sodipodi:namedview
   pagecolor="#ffffff"
   bordercolor="#666666"
   borderopacity="1"
   objecttolerance="10"
   gridtolerance="10"
   guidetolerance="10"
   inkscape:pageopacity="0"
   inkscape:pageshadow="2"
   inkscape:window-width="1920"
   inkscape:window-height="1026"
   id="namedview37"
   showgrid="false"
   inkscape:zoom="7.5164021"
   inkscape:cx="15.699"
   inkscape:cy="15.565958"
   inkscape:window-x="-4"
   inkscape:window-y="-4"
   inkscape:window-maximized="1"
   inkscape:current-layer="Capa_1" />
<g
   id="g3"
   style="fill:#007aff">
	<path
   d="m 24.709,22.047 c -1.034,0 -1.981,0.347 -2.756,0.915 L 11.287,16.44 c 0.04,-0.242 0.075,-0.486 0.075,-0.74 0,-0.253 -0.035,-0.496 -0.075,-0.738 L 21.954,8.438 c 0.772,0.568 1.721,0.915 2.754,0.915 2.584,0 4.678,-2.093 4.678,-4.677 C 29.387,2.094 27.293,0 24.709,0 c -2.582,0 -4.676,2.094 -4.676,4.676 0,0.253 0.036,0.497 0.075,0.74 L 9.442,11.938 C 8.669,11.37 7.722,11.023 6.688,11.023 c -2.583,0 -4.677,2.094 -4.677,4.676 0,2.583 2.094,4.677 4.677,4.677 1.034,0 1.98,-0.347 2.754,-0.915 l 10.666,6.521 c -0.039,0.243 -0.075,0.486 -0.075,0.739 0,2.583 2.094,4.677 4.676,4.677 2.584,0 4.678,-2.095 4.678,-4.677 -0.001,-2.581 -2.096,-4.674 -4.678,-4.674 z"
   id="path5"
   inkscape:connector-curvature="0" />
</g>
<g
   id="g7">
</g>
<g
   id="g9">
</g>
<g
   id="g11">
</g>
<g
   id="g13">
</g>
<g
   id="g15">
</g>
<g
   id="g17">
</g>
<g
   id="g19">
</g>
<g
   id="g21">
</g>
<g
   id="g23">
</g>
<g
   id="g25">
</g>
<g
   id="g27">
</g>
<g
   id="g29">
</g>
<g
   id="g31">
</g>
<g
   id="g33">
</g>
<g
   id="g35">
</g>
</svg>