<?xml version="1.0" encoding="UTF-8" standalone="no"?>
<!-- Generator: Adobe Illustrator 16.0.0, SVG Export Plug-In . SVG Version: 6.00 Build 0)  -->

<svg
   xmlns:dc="http://purl.org/dc/elements/1.1/"
   xmlns:cc="http://creativecommons.org/ns#"
   xmlns:rdf="http://www.w3.org/1999/02/22-rdf-syntax-ns#"
   xmlns:svg="http://www.w3.org/2000/svg"
   xmlns="http://www.w3.org/2000/svg"
   xmlns:sodipodi="http://sodipodi.sourceforge.net/DTD/sodipodi-0.dtd"
   xmlns:inkscape="http://www.inkscape.org/namespaces/inkscape"
   version="1.1"
   id="Capa_1"
   x="0px"
   y="0px"
   width="32px"
   height="32px"
   viewBox="0 0 197.783 197.783"
   style="enable-background:new 0 0 197.783 197.783;"
   xml:space="preserve"
   inkscape:version="0.91 r13725"
   sodipodi:docname="train-red.svg"><metadata
   id="metadata45"><rdf:RDF><cc:Work
       rdf:about=""><dc:format>image/svg+xml</dc:format><dc:type
         rdf:resource="http://purl.org/dc/dcmitype/StillImage" /><dc:title></dc:title></cc:Work></rdf:RDF></metadata><defs
   id="defs43" /><sodipodi:namedview
   pagecolor="#ffffff"
   bordercolor="#666666"
   borderopacity="1"
   objecttolerance="10"
   gridtolerance="10"
   guidetolerance="10"
   inkscape:pageopacity="0"
   inkscape:pageshadow="2"
   inkscape:window-width="1920"
   inkscape:window-height="1026"
   id="namedview41"
   showgrid="false"
   inkscape:zoom="7.375"
   inkscape:cx="16"
   inkscape:cy="15.864407"
   inkscape:window-x="-4"
   inkscape:window-y="-4"
   inkscape:window-maximized="1"
   inkscape:current-layer="Capa_1" />
<g
   id="g3">
	<g
   id="g5">
		<ellipse
   cx="98.957"
   cy="16.533"
   rx="16.753"
   ry="16.533"
   fill="#000000"
   id="ellipse7" />
		<path
   d="M185.24,35.462l-172.698-0.03c-3.299,0-5.974,2.685-5.974,5.984c0,3.299,2.675,5.984,5.974,5.984h66.35v60.763    l-24.613,22.188c-3.349,3.019-5.261,7.317-5.261,11.826v46.646c0,4.949,4.004,8.961,8.952,8.961c4.949,0,8.954-4.012,8.954-8.961    v-42.521c0-2.059,0.873-4.02,2.402-5.398l21.976-19.805h15.312l21.992,19.805c1.53,1.379,2.404,3.34,2.404,5.399v42.521    c0,4.949,4.003,8.961,8.953,8.961c4.947,0,8.953-4.012,8.953-8.961v-46.646c0-4.509-1.912-8.808-5.262-11.826l-24.615-22.188V47.4    h36.285l29.916,0.004c3.299,0,5.974-2.672,5.974-5.971C191.212,38.134,188.539,35.462,185.24,35.462z"
   fill="#000000"
   id="path9" />
	</g>
</g>
<g
   id="g11">
</g>
<g
   id="g13">
</g>
<g
   id="g15">
</g>
<g
   id="g17">
</g>
<g
   id="g19">
</g>
<g
   id="g21">
</g>
<g
   id="g23">
</g>
<g
   id="g25">
</g>
<g
   id="g27">
</g>
<g
   id="g29">
</g>
<g
   id="g31">
</g>
<g
   id="g33">
</g>
<g
   id="g35">
</g>
<g
   id="g37">
</g>
<g
   id="g39">
</g>
<path
   style="fill:#ff0000;fill-opacity:1"
   d="M 8.6745954,31.707281 C 8.4713856,31.597003 8.2425721,31.389898 8.1661208,31.247048 c -0.086546,-0.161712 -0.1390022,-1.88 -0.1390022,-4.553235 0,-3.689046 0.031139,-4.359127 0.2211801,-4.75961 0.1289786,-0.271802 1.1153379,-1.269507 2.3661543,-2.393373 l 2.144975,-1.927271 0.0067,-4.983051 0.0067,-4.9830504 -5.4976885,0 -5.4976886,0 L 1.4446841,7.314638 c -0.4223201,-0.4223203 -0.4223201,-0.8103456 0,-1.2326657 l 0.3328198,-0.3328198 14.1014781,0 c 10.488023,0 14.190809,0.040702 14.450092,0.1588393 0.631839,0.2878846 0.625474,1.3672576 -0.0095,1.6086685 -0.200084,0.076074 -2.609499,0.1307973 -5.758918,0.1307973 l -5.414901,0 0,4.9207644 0,4.920765 2.225642,2.00218 c 1.658746,1.492201 2.280415,2.139069 2.440678,2.539606 0.328613,0.821283 0.319461,8.652302 -0.01077,9.211329 -0.457628,0.774699 -1.460714,0.909196 -2.089716,0.280192 l -0.396347,-0.396348 -0.0061,-3.773143 c -0.0043,-2.632709 -0.0555,-3.886635 -0.169492,-4.148638 -0.08986,-0.206522 -0.985011,-1.106522 -1.989233,-2 l -1.825858,-1.624504 -1.323314,0 -1.323315,0 -1.848636,1.657105 c -1.016749,0.911408 -1.903012,1.800126 -1.969472,1.974929 -0.06646,0.174803 -0.120836,1.958438 -0.120836,3.963634 0,3.932762 -0.04273,4.21143 -0.69763,4.550095 -0.4708978,0.243509 -0.894982,0.23788 -1.3667576,-0.01814 z"
   id="path4173"
   inkscape:connector-curvature="0"
   transform="scale(6.1807189,6.1807189)" /><path
   style="fill:#ff0000;fill-opacity:1"
   d="M 15.196049,5.1302142 C 14.051204,4.7777028 13.159872,3.386853 13.391317,2.3140774 13.624841,1.2316623 14.215773,0.5443653 15.199895,0.21056982 16.15641,-0.11386221 17.22358,0.17392727 17.950696,0.95239342 19.262525,2.3568659 18.545601,4.6714405 16.637288,5.1927079 15.981467,5.3718495 15.980695,5.371816 15.196049,5.1302142 Z"
   id="path4175"
   inkscape:connector-curvature="0"
   transform="scale(6.1807189,6.1807189)" /></svg>