<?xml version="1.0" encoding="UTF-8" standalone="no"?>
<!-- Generator: Adobe Illustrator 18.0.0, SVG Export Plug-In . SVG Version: 6.00 Build 0)  -->

<svg
   xmlns:dc="http://purl.org/dc/elements/1.1/"
   xmlns:cc="http://creativecommons.org/ns#"
   xmlns:rdf="http://www.w3.org/1999/02/22-rdf-syntax-ns#"
   xmlns:svg="http://www.w3.org/2000/svg"
   xmlns="http://www.w3.org/2000/svg"
   xmlns:sodipodi="http://sodipodi.sourceforge.net/DTD/sodipodi-0.dtd"
   xmlns:inkscape="http://www.inkscape.org/namespaces/inkscape"
   version="1.1"
   id="Capa_1"
   x="0px"
   y="0px"
   viewBox="0 0 492.927 492.927"
   style="enable-background:new 0 0 492.927 492.927;"
   xml:space="preserve"
   width="32px"
   height="32px"
   inkscape:version="0.91 r13725"
   sodipodi:docname="winning-red.svg"><metadata
   id="metadata40"><rdf:RDF><cc:Work
       rdf:about=""><dc:format>image/svg+xml</dc:format><dc:type
         rdf:resource="http://purl.org/dc/dcmitype/StillImage" /><dc:title></dc:title></cc:Work></rdf:RDF></metadata><defs
   id="defs38" /><sodipodi:namedview
   pagecolor="#ffffff"
   bordercolor="#666666"
   borderopacity="1"
   objecttolerance="10"
   gridtolerance="10"
   guidetolerance="10"
   inkscape:pageopacity="0"
   inkscape:pageshadow="2"
   inkscape:window-width="1920"
   inkscape:window-height="1026"
   id="namedview36"
   showgrid="false"
   inkscape:zoom="7.375"
   inkscape:cx="16"
   inkscape:cy="15.864407"
   inkscape:window-x="-4"
   inkscape:window-y="-4"
   inkscape:window-maximized="1"
   inkscape:current-layer="Capa_1" />
<g
   id="XMLID_272_">
	<path
   id="XMLID_276_"
   d="M409.556,406.216c6.92-27.57,7.387-55.911,1.518-83.725c-7.671-36.358-18.191-81.871-19.433-87.477   c-2.678-12.002-11.787-20.901-22.959-23.955l-125.628,20.707c-2.884,0.474-5.579,1.482-8.131,2.75   c-4.198,2.06-7.903,5.011-10.708,8.899c-4.491,6.269-6.301,13.908-5.068,21.532c2.084,12.691,12.299,22.096,24.549,23.834   c2.822,0.402,5.693,0.531,8.625,0.049l52.239-8.506c4.504-0.713,8.61,2.869,9.205,6.631c0.721,4.385-2.245,8.514-6.624,9.228   l-52.238,8.507c-6.379,1.066-8.738,0.432-10.984,0.256c-0.625,5.315-1.97,10.557-4.391,15.52   c-5.645,11.569-15.457,20.244-27.629,24.412c-13.067,4.506-27.191,3.207-39.202-3.631c-5.597,7.447-13.325,13.299-22.448,16.482   c-11.092,3.849-22.91,3.711-34.632-1.273l28.284,82.309c11.109,32.406,41.609,54.163,75.871,54.163h105.457   c36.572,0,68.527-24.747,77.666-60.175L409.556,406.216z"
   fill="#000000" />
	<path
   id="XMLID_273_"
   d="M144.941,342.559c13.77-4.786,22.063-18.022,21.391-31.866c6.172,16.178,23.906,24.669,40.338,19   c12.844-4.417,21.023-16.172,21.6-28.966c-12.893-6.165-22.514-18.191-24.965-33.191c-1.397-8.602-0.227-17.196,3.143-25.006   c1.266-2.949,2.805-5.819,4.73-8.497c7.023-9.756,17.41-16.188,29.295-18.118l30-4.948l77.217-12.73l31.718-135.825   c4.522-19.439-7.554-38.875-26.987-43.412c-19.432-4.562-38.883,7.545-43.418,26.978L271.129,208.21L208.771,24.539   c-6.428-18.896-26.873-29.045-45.857-22.601c-18.904,6.414-29.021,26.939-22.592,45.834l35.498,104.59l7.922,23.339   c-5.965-5.846-13.807-9.493-22.256-9.493c-3.461,0-6.99,0.569-10.438,1.765c-16.785,5.765-25.721,24.043-19.943,40.823l5.176,15.04   c-6.029-8.756-15.984-13.998-26.471-13.998c-3.465,0-7.008,0.567-10.455,1.78c-16.771,5.835-25.605,24.147-19.77,40.901   l24.467,70.27C109.907,339.673,128.361,348.364,144.941,342.559z"
   fill="#000000" />
</g>
<g
   id="g6">
</g>
<g
   id="g8">
</g>
<g
   id="g10">
</g>
<g
   id="g12">
</g>
<g
   id="g14">
</g>
<g
   id="g16">
</g>
<g
   id="g18">
</g>
<g
   id="g20">
</g>
<g
   id="g22">
</g>
<g
   id="g24">
</g>
<g
   id="g26">
</g>
<g
   id="g28">
</g>
<g
   id="g30">
</g>
<g
   id="g32">
</g>
<g
   id="g34">
</g>
<path
   style="fill:#ff0000;fill-opacity:1"
   d="M 7.8237288,22.039246 C 7.1158024,21.601963 6.9542635,21.301115 6.0581047,18.750964 5.1020244,16.030297 5.0020899,15.356613 5.4476439,14.635692 6.062517,13.640807 7.6025209,13.437636 8.4595793,14.238332 l 0.4197821,0.392176 -0.09038,-0.338983 C 8.3933986,12.807831 8.3897748,12.735467 8.6783822,12.083023 9.1737793,10.963095 10.475039,10.548848 11.502639,11.18394 c 0.251176,0.155235 0.456683,0.247762 0.456683,0.205616 0,-0.04215 -0.640678,-1.9730351 -1.423729,-4.2908635 C 8.97301,2.4734504 8.8739386,1.9438908 9.4180435,1.1251367 9.7716503,0.59303921 10.74325,0.05423729 11.349153,0.05423729 c 0.605285,0 1.582373,0.54296506 1.865494,1.03665011 0.134519,0.2345643 1.128937,3.0413439 2.209818,6.2372881 2.372744,7.0157205 2.094963,6.2797865 2.244493,5.9464005 0.0669,-0.149152 0.670586,-2.620339 1.341529,-5.4915252 0.746767,-3.1956701 1.315198,-5.3485616 1.465624,-5.5509438 0.458522,-0.6168963 0.936655,-0.8697565 1.752575,-0.9268484 0.653456,-0.045724 0.858702,-0.00221 1.252833,0.265629 0.712989,0.4845203 1.088183,1.1264301 1.086773,1.8593338 -0.0011,0.5360426 -1.929827,9.1765116 -2.082547,9.3292306 -0.03019,0.03019 -1.685262,0.328027 -3.677932,0.661852 -1.99267,0.333825 -3.814866,0.703836 -4.049323,0.822246 -1.257642,0.635155 -1.852273,1.925075 -1.553516,3.370009 0.113952,0.551128 0.274936,0.809763 0.860477,1.382436 l 0.720299,0.70447 -0.29457,0.575728 c -0.353609,0.691118 -0.806491,1.045282 -1.475456,1.153841 -0.659998,0.107102 -1.583181,-0.337694 -1.934878,-0.932239 l -0.262383,-0.443558 -0.08485,0.40678 c -0.307243,1.472907 -1.7838497,2.273772 -2.9098812,1.578229 z"
   id="path4184"
   inkscape:connector-curvature="0"
   transform="scale(15.403969,15.403969)" /><path
   style="fill:#ff0000;fill-opacity:1"
   d="M 12.811666,31.721932 C 11.596688,31.342222 10.273086,30.272397 9.737938,29.237535 9.62217,29.013664 9.1336248,27.679567 8.652282,26.272876 8.1709391,24.866184 7.7373917,23.613897 7.6888433,23.490017 7.611322,23.292206 7.6636928,23.279578 8.1189308,23.38631 c 0.773972,0.18146 1.8344971,-0.07936 2.5531372,-0.627913 0.516683,-0.394394 0.656064,-0.442375 0.954946,-0.32874 0.563957,0.214416 1.837697,0.151662 2.434003,-0.119916 0.702289,-0.319847 1.499241,-1.209948 1.708409,-1.908091 0.134405,-0.448602 0.226468,-0.550803 0.49617,-0.550803 0.182129,0 1.102979,-0.12709 2.046333,-0.282423 1.763649,-0.290402 2.281508,-0.541066 2.099219,-1.016105 -0.158874,-0.414019 -0.51875,-0.433456 -2.411522,-0.130247 -2.444171,0.39154 -3.009615,0.269135 -3.545711,-0.767561 -0.411632,-0.796008 -0.04887,-1.876317 0.772068,-2.29925 0.63123,-0.325198 8.589673,-1.628242 8.99753,-1.473175 0.432617,0.164481 0.994583,0.880697 1.150624,1.466452 0.0736,0.27627 0.415683,1.783665 0.760191,3.349767 0.941216,4.278681 0.944631,5.930346 0.01886,9.124136 -0.573998,1.980219 -1.782687,3.306588 -3.5004,3.841201 -0.731257,0.227592 -1.273484,0.254027 -5.044533,0.245931 -3.093062,-0.0066 -4.37831,-0.05692 -4.796592,-0.187641 z"
   id="path4186"
   inkscape:connector-curvature="0"
   transform="scale(15.403969,15.403969)" /></svg>